<mxfile host="Electron" modified="2023-12-18T04:27:44.758Z" agent="Mozilla/5.0 (Windows NT 10.0; Win64; x64) AppleWebKit/537.36 (KHTML, like Gecko) draw.io/22.1.2 Chrome/114.0.5735.289 Electron/25.9.4 Safari/537.36" etag="Bg-6WuibDLVj6QUCMs2c" compressed="false" version="22.1.2" type="device">
  <diagram name="Страница-1" id="Страница-1">
    <mxGraphModel dx="1909" dy="1144" grid="1" gridSize="10" guides="1" tooltips="1" connect="1" arrows="1" fold="1" page="1" pageScale="1" pageWidth="1654" pageHeight="1169" math="0" shadow="0">
      <root>
        <mxCell id="0" />
        <mxCell id="tpW0L4eKJtAbM24Pp-hq-4" value="Границы" parent="0" />
        <mxCell id="2HA5Jx2y981VHuBSSjhP-89" value="ether3" style="text;html=1;strokeColor=none;fillColor=none;align=right;verticalAlign=middle;whiteSpace=wrap;rounded=0;dashed=1;fillStyle=auto;strokeWidth=2;fontFamily=Arial;fontSize=11;fontStyle=2" parent="tpW0L4eKJtAbM24Pp-hq-4" vertex="1">
          <mxGeometry x="391" y="355.09000000000003" width="40" height="20" as="geometry" />
        </mxCell>
        <mxCell id="2HA5Jx2y981VHuBSSjhP-92" value="Gi0" style="text;html=1;strokeColor=none;fillColor=none;align=left;verticalAlign=middle;whiteSpace=wrap;rounded=0;dashed=1;fillStyle=auto;strokeWidth=2;fontFamily=Arial;fontSize=11;fontStyle=2" parent="tpW0L4eKJtAbM24Pp-hq-4" vertex="1">
          <mxGeometry x="336.28999999999985" y="375.09000000000003" width="40" height="20" as="geometry" />
        </mxCell>
        <mxCell id="2HA5Jx2y981VHuBSSjhP-94" value="Gi0" style="text;html=1;strokeColor=none;fillColor=none;align=left;verticalAlign=middle;whiteSpace=wrap;rounded=0;dashed=1;fillStyle=auto;strokeWidth=2;fontFamily=Arial;fontSize=11;fontStyle=2" parent="tpW0L4eKJtAbM24Pp-hq-4" vertex="1">
          <mxGeometry x="964" y="325.99" width="40" height="20" as="geometry" />
        </mxCell>
        <mxCell id="2HA5Jx2y981VHuBSSjhP-95" value="Gi0" style="text;html=1;strokeColor=none;fillColor=none;align=left;verticalAlign=middle;whiteSpace=wrap;rounded=0;dashed=1;fillStyle=auto;strokeWidth=2;fontFamily=Arial;fontSize=11;fontStyle=2" parent="tpW0L4eKJtAbM24Pp-hq-4" vertex="1">
          <mxGeometry x="1124" y="324.99" width="40" height="20" as="geometry" />
        </mxCell>
        <mxCell id="2HA5Jx2y981VHuBSSjhP-96" value="&lt;span style=&quot;font-size: 11px;&quot;&gt;Gi1/0/3&lt;/span&gt;" style="text;html=1;strokeColor=none;fillColor=none;align=right;verticalAlign=middle;whiteSpace=wrap;rounded=0;dashed=1;fillStyle=auto;strokeWidth=2;fontFamily=Arial;fontSize=11;fontStyle=2" parent="tpW0L4eKJtAbM24Pp-hq-4" vertex="1">
          <mxGeometry x="915.56" y="358.77" width="40" height="20" as="geometry" />
        </mxCell>
        <mxCell id="2HA5Jx2y981VHuBSSjhP-97" value="Gi1/0/4" style="text;html=1;strokeColor=none;fillColor=none;align=right;verticalAlign=middle;whiteSpace=wrap;rounded=0;dashed=1;fillStyle=auto;strokeWidth=2;fontFamily=Arial;fontSize=11;fontStyle=2" parent="tpW0L4eKJtAbM24Pp-hq-4" vertex="1">
          <mxGeometry x="1074.56" y="358.77" width="40" height="20" as="geometry" />
        </mxCell>
        <mxCell id="2HA5Jx2y981VHuBSSjhP-98" value="Gi1/0/17" style="text;html=1;strokeColor=none;fillColor=none;align=right;verticalAlign=middle;whiteSpace=wrap;rounded=0;dashed=1;fillStyle=auto;strokeWidth=2;fontFamily=Arial;fontSize=11;fontStyle=2" parent="tpW0L4eKJtAbM24Pp-hq-4" vertex="1">
          <mxGeometry x="1074.56" y="378.77" width="40" height="20" as="geometry" />
        </mxCell>
        <mxCell id="2HA5Jx2y981VHuBSSjhP-99" value="Gi1/0/5" style="text;html=1;strokeColor=none;fillColor=none;align=right;verticalAlign=middle;whiteSpace=wrap;rounded=0;dashed=1;fillStyle=auto;strokeWidth=2;fontFamily=Arial;fontSize=11;fontStyle=2" parent="tpW0L4eKJtAbM24Pp-hq-4" vertex="1">
          <mxGeometry x="915.56" y="378.77" width="40" height="20" as="geometry" />
        </mxCell>
        <mxCell id="2HA5Jx2y981VHuBSSjhP-100" value="Gi0" style="text;html=1;strokeColor=none;fillColor=none;align=left;verticalAlign=middle;whiteSpace=wrap;rounded=0;dashed=1;fillStyle=auto;strokeWidth=2;fontFamily=Arial;fontSize=11;fontStyle=2" parent="tpW0L4eKJtAbM24Pp-hq-4" vertex="1">
          <mxGeometry x="958.56" y="408.77" width="40" height="20" as="geometry" />
        </mxCell>
        <mxCell id="2HA5Jx2y981VHuBSSjhP-101" value="&lt;span style=&quot;font-size: 11px;&quot;&gt;Gi0&lt;/span&gt;" style="text;html=1;strokeColor=none;fillColor=none;align=left;verticalAlign=middle;whiteSpace=wrap;rounded=0;dashed=1;fillStyle=auto;strokeWidth=2;fontFamily=Arial;fontSize=11;fontStyle=2" parent="tpW0L4eKJtAbM24Pp-hq-4" vertex="1">
          <mxGeometry x="1118.56" y="408.77" width="40" height="20" as="geometry" />
        </mxCell>
        <mxCell id="2HA5Jx2y981VHuBSSjhP-104" value="USB-B" style="text;html=1;strokeColor=none;fillColor=none;align=left;verticalAlign=middle;whiteSpace=wrap;rounded=0;dashed=1;fillStyle=auto;strokeWidth=2;fontFamily=Arial;fontSize=11;fontStyle=2" parent="tpW0L4eKJtAbM24Pp-hq-4" vertex="1">
          <mxGeometry x="817.7624999999999" y="291.2025000000001" width="40" height="20" as="geometry" />
        </mxCell>
        <mxCell id="2HA5Jx2y981VHuBSSjhP-105" value="USB-A" style="text;html=1;strokeColor=none;fillColor=none;align=right;verticalAlign=middle;whiteSpace=wrap;rounded=0;dashed=1;fillStyle=auto;strokeWidth=2;fontFamily=Arial;fontSize=11;fontStyle=2" parent="tpW0L4eKJtAbM24Pp-hq-4" vertex="1">
          <mxGeometry x="887.9649999999999" y="263.03499999999997" width="40" height="20" as="geometry" />
        </mxCell>
        <mxCell id="2HA5Jx2y981VHuBSSjhP-106" value="USB-A" style="text;html=1;strokeColor=none;fillColor=none;align=left;verticalAlign=middle;whiteSpace=wrap;rounded=0;dashed=1;fillStyle=auto;strokeWidth=2;fontFamily=Arial;fontSize=11;fontStyle=2" parent="tpW0L4eKJtAbM24Pp-hq-4" vertex="1">
          <mxGeometry x="1142.8574999999998" y="261.0375" width="40" height="20" as="geometry" />
        </mxCell>
        <mxCell id="2HA5Jx2y981VHuBSSjhP-107" value="USB-B" style="text;html=1;strokeColor=none;fillColor=none;align=right;verticalAlign=middle;whiteSpace=wrap;rounded=0;dashed=1;fillStyle=auto;strokeWidth=2;fontFamily=Arial;fontSize=11;fontStyle=2" parent="tpW0L4eKJtAbM24Pp-hq-4" vertex="1">
          <mxGeometry x="1195.7749999999999" y="291.20500000000004" width="40" height="20" as="geometry" />
        </mxCell>
        <mxCell id="2HA5Jx2y981VHuBSSjhP-108" style="edgeStyle=orthogonalEdgeStyle;rounded=0;orthogonalLoop=1;jettySize=auto;html=1;strokeWidth=1;fontFamily=Arial;fontSize=14;endArrow=none;endFill=0;dashed=1;align=center;fontStyle=2" parent="tpW0L4eKJtAbM24Pp-hq-4" edge="1">
          <mxGeometry relative="1" as="geometry">
            <mxPoint x="774.5599999999998" y="839" as="targetPoint" />
            <mxPoint x="694.5599999999998" y="839" as="sourcePoint" />
          </mxGeometry>
        </mxCell>
        <mxCell id="2HA5Jx2y981VHuBSSjhP-111" value="" style="endArrow=none;html=1;rounded=0;strokeWidth=1;fontFamily=Arial;fontSize=14;exitX=0;exitY=1;exitDx=0;exitDy=0;align=center;fontStyle=2" parent="tpW0L4eKJtAbM24Pp-hq-4" edge="1">
          <mxGeometry width="50" height="50" relative="1" as="geometry">
            <mxPoint x="694.5599999999998" y="955.31" as="sourcePoint" />
            <mxPoint x="774.5599999999998" y="955.31" as="targetPoint" />
          </mxGeometry>
        </mxCell>
        <mxCell id="2HA5Jx2y981VHuBSSjhP-112" style="edgeStyle=orthogonalEdgeStyle;rounded=0;orthogonalLoop=1;jettySize=auto;html=1;strokeWidth=1;fontFamily=Arial;fontSize=14;endArrow=none;endFill=0;align=center;fontStyle=2;" parent="tpW0L4eKJtAbM24Pp-hq-4" edge="1">
          <mxGeometry relative="1" as="geometry">
            <mxPoint x="336.28999999999985" y="375.09000000000003" as="targetPoint" />
            <mxPoint x="434" y="375.0482608695653" as="sourcePoint" />
            <Array as="points">
              <mxPoint x="386" y="375.57000000000005" />
            </Array>
          </mxGeometry>
        </mxCell>
        <mxCell id="2HA5Jx2y981VHuBSSjhP-117" style="edgeStyle=orthogonalEdgeStyle;rounded=0;orthogonalLoop=1;jettySize=auto;html=1;exitX=0;exitY=0;exitDx=0;exitDy=0;endArrow=none;endFill=0;fontFamily=Arial;align=center;fontStyle=2" parent="tpW0L4eKJtAbM24Pp-hq-4" source="2HA5Jx2y981VHuBSSjhP-94" target="2HA5Jx2y981VHuBSSjhP-136" edge="1">
          <mxGeometry relative="1" as="geometry">
            <mxPoint x="955.56" y="418.77" as="targetPoint" />
            <Array as="points">
              <mxPoint x="955.56" y="408.77" />
              <mxPoint x="955.56" y="408.77" />
            </Array>
          </mxGeometry>
        </mxCell>
        <mxCell id="2HA5Jx2y981VHuBSSjhP-118" style="edgeStyle=orthogonalEdgeStyle;rounded=0;orthogonalLoop=1;jettySize=auto;html=1;exitX=0;exitY=0;exitDx=0;exitDy=0;endArrow=none;endFill=0;fontFamily=Arial;align=center;fontStyle=2" parent="tpW0L4eKJtAbM24Pp-hq-4" target="2HA5Jx2y981VHuBSSjhP-137" edge="1">
          <mxGeometry relative="1" as="geometry">
            <mxPoint x="1115.56" y="418.77" as="targetPoint" />
            <mxPoint x="1115.56" y="338.77" as="sourcePoint" />
            <Array as="points">
              <mxPoint x="1115.56" y="408.77" />
              <mxPoint x="1115.56" y="408.77" />
            </Array>
          </mxGeometry>
        </mxCell>
        <mxCell id="2HA5Jx2y981VHuBSSjhP-119" value="" style="edgeStyle=orthogonalEdgeStyle;rounded=0;orthogonalLoop=1;jettySize=auto;html=1;endArrow=none;endFill=0;fontFamily=Arial;align=center;fontStyle=2;" parent="tpW0L4eKJtAbM24Pp-hq-4" edge="1">
          <mxGeometry relative="1" as="geometry">
            <mxPoint x="1142.56" y="285.9900000000001" as="targetPoint" />
            <mxPoint x="1235.56" y="285.9900000000001" as="sourcePoint" />
          </mxGeometry>
        </mxCell>
        <mxCell id="2HA5Jx2y981VHuBSSjhP-120" value="" style="edgeStyle=orthogonalEdgeStyle;rounded=0;orthogonalLoop=1;jettySize=auto;html=1;endArrow=none;endFill=0;fontFamily=Arial;align=center;fontStyle=2;" parent="tpW0L4eKJtAbM24Pp-hq-4" edge="1">
          <mxGeometry relative="1" as="geometry">
            <mxPoint x="795.56" y="285.99000000000024" as="targetPoint" />
            <mxPoint x="929.19" y="285.99000000000024" as="sourcePoint" />
          </mxGeometry>
        </mxCell>
        <mxCell id="2HA5Jx2y981VHuBSSjhP-121" style="edgeStyle=orthogonalEdgeStyle;rounded=0;orthogonalLoop=1;jettySize=auto;html=1;strokeWidth=1;fontFamily=Arial;fontSize=14;endArrow=none;endFill=0;align=center;fontStyle=2;" parent="tpW0L4eKJtAbM24Pp-hq-4" edge="1">
          <mxGeometry relative="1" as="geometry">
            <mxPoint x="772.4499999999999" y="895.31" as="targetPoint" />
            <mxPoint x="692.4499999999999" y="895.31" as="sourcePoint" />
          </mxGeometry>
        </mxCell>
        <mxCell id="2HA5Jx2y981VHuBSSjhP-122" value="" style="shape=mxgraph.cisco.servers.file_server;sketch=0;html=1;pointerEvents=1;dashed=0;fillColor=#000000;strokeColor=#E6E6E6;strokeWidth=2;verticalLabelPosition=bottom;verticalAlign=top;align=center;outlineConnect=0;fillStyle=auto;fontSize=23;fontFamily=Arial;fontStyle=2" parent="tpW0L4eKJtAbM24Pp-hq-4" vertex="1">
          <mxGeometry x="465.77000000000004" y="783.8699999999999" width="78.74" height="80" as="geometry" />
        </mxCell>
        <mxCell id="2HA5Jx2y981VHuBSSjhP-125" value="" style="shape=mxgraph.cisco.computers_and_peripherals.pc;sketch=0;html=1;pointerEvents=1;dashed=0;fillColor=#000000;strokeColor=#E6E6E6;strokeWidth=2;verticalLabelPosition=bottom;verticalAlign=top;align=center;outlineConnect=0;fontSize=23;fillStyle=auto;aspect=fixed;fontFamily=Arial;fontStyle=2" parent="tpW0L4eKJtAbM24Pp-hq-4" vertex="1">
          <mxGeometry x="334.4" y="913.8200000000002" width="78.74" height="71.8" as="geometry" />
        </mxCell>
        <mxCell id="2HA5Jx2y981VHuBSSjhP-126" value="" style="shape=mxgraph.cisco.computers_and_peripherals.laptop;sketch=0;html=1;pointerEvents=1;dashed=0;fillColor=#000000;strokeColor=#E6E6E6;strokeWidth=2;verticalLabelPosition=bottom;verticalAlign=top;align=center;outlineConnect=0;fillStyle=auto;fontSize=23;aspect=fixed;fontFamily=Arial;container=0;fontStyle=2" parent="tpW0L4eKJtAbM24Pp-hq-4" vertex="1">
          <mxGeometry x="176.69999999999996" y="924.3899999999999" width="78.74" height="54.22" as="geometry" />
        </mxCell>
        <mxCell id="2HA5Jx2y981VHuBSSjhP-127" value="" style="shape=mxgraph.cisco.misc.access_point;html=1;pointerEvents=1;dashed=0;fillColor=#000000;strokeColor=#E6E6E6;strokeWidth=2;verticalLabelPosition=bottom;verticalAlign=top;align=center;outlineConnect=0;fillStyle=auto;fontSize=23;aspect=fixed;fontFamily=Arial;container=0;fontStyle=2" parent="tpW0L4eKJtAbM24Pp-hq-4" vertex="1">
          <mxGeometry x="176.69999999999996" y="801.2399999999999" width="78.74" height="36.26" as="geometry" />
        </mxCell>
        <mxCell id="2HA5Jx2y981VHuBSSjhP-129" value="" style="shape=mxgraph.cisco.computers_and_peripherals.printer;sketch=0;html=1;pointerEvents=1;dashed=0;fillColor=#000000;strokeColor=#E6E6E6;strokeWidth=2;verticalLabelPosition=bottom;verticalAlign=top;align=center;outlineConnect=0;fontSize=23;fillStyle=auto;aspect=fixed;fontFamily=Arial;fontStyle=2" parent="tpW0L4eKJtAbM24Pp-hq-4" vertex="1">
          <mxGeometry x="476.61000000000007" y="931.4300000000001" width="78.74" height="29.88" as="geometry" />
        </mxCell>
        <mxCell id="2HA5Jx2y981VHuBSSjhP-131" value="" style="shape=mxgraph.cisco.servers.file_server;sketch=0;html=1;pointerEvents=1;dashed=0;fillColor=#000000;strokeColor=#E6E6E6;strokeWidth=2;verticalLabelPosition=bottom;verticalAlign=top;align=center;outlineConnect=0;fillStyle=auto;fontSize=23;fontFamily=Arial;fontStyle=2" parent="tpW0L4eKJtAbM24Pp-hq-4" vertex="1">
          <mxGeometry x="256.28999999999996" y="335.09000000000003" width="78.74" height="80" as="geometry" />
        </mxCell>
        <mxCell id="2HA5Jx2y981VHuBSSjhP-134" value="" style="shape=mxgraph.cisco.computers_and_peripherals.printer;sketch=0;html=1;pointerEvents=1;dashed=0;fillColor=#000000;strokeColor=#E6E6E6;strokeWidth=2;verticalLabelPosition=bottom;verticalAlign=top;align=center;outlineConnect=0;fontSize=23;fillStyle=auto;aspect=fixed;fontFamily=Arial;fontStyle=2" parent="tpW0L4eKJtAbM24Pp-hq-4" vertex="1">
          <mxGeometry x="1235.56" y="270.9900000000001" width="78.74" height="29.88" as="geometry" />
        </mxCell>
        <mxCell id="2HA5Jx2y981VHuBSSjhP-136" value="" style="shape=mxgraph.cisco.computers_and_peripherals.pc;sketch=0;html=1;pointerEvents=1;dashed=0;fillColor=#000000;strokeColor=#E6E6E6;strokeWidth=2;verticalLabelPosition=bottom;verticalAlign=top;align=center;outlineConnect=0;fontSize=23;fillStyle=auto;aspect=fixed;fontFamily=Arial;fontStyle=2" parent="tpW0L4eKJtAbM24Pp-hq-4" vertex="1">
          <mxGeometry x="915.56" y="426.77" width="78.74" height="71.8" as="geometry" />
        </mxCell>
        <mxCell id="2HA5Jx2y981VHuBSSjhP-137" value="" style="shape=mxgraph.cisco.computers_and_peripherals.pc;sketch=0;html=1;pointerEvents=1;dashed=0;fillColor=#000000;strokeColor=#E6E6E6;strokeWidth=2;verticalLabelPosition=bottom;verticalAlign=top;align=center;outlineConnect=0;fontSize=23;fillStyle=auto;aspect=fixed;fontFamily=Arial;fontStyle=2" parent="tpW0L4eKJtAbM24Pp-hq-4" vertex="1">
          <mxGeometry x="1075.56" y="426.77" width="78.74" height="71.8" as="geometry" />
        </mxCell>
        <mxCell id="2HA5Jx2y981VHuBSSjhP-142" value="" style="shape=mxgraph.cisco.computers_and_peripherals.printer;sketch=0;html=1;pointerEvents=1;dashed=0;fillColor=#000000;strokeColor=#E6E6E6;strokeWidth=2;verticalLabelPosition=bottom;verticalAlign=top;align=center;outlineConnect=0;fontSize=23;fillStyle=auto;aspect=fixed;fontFamily=Arial;fontStyle=2" parent="tpW0L4eKJtAbM24Pp-hq-4" vertex="1">
          <mxGeometry x="755.56" y="270.99000000000024" width="78.74" height="29.88" as="geometry" />
        </mxCell>
        <mxCell id="2HA5Jx2y981VHuBSSjhP-143" style="edgeStyle=orthogonalEdgeStyle;rounded=0;orthogonalLoop=1;jettySize=auto;html=1;strokeWidth=3;fontFamily=Arial;fontSize=14;endArrow=none;endFill=0;align=center;fontStyle=2" parent="tpW0L4eKJtAbM24Pp-hq-4" edge="1">
          <mxGeometry relative="1" as="geometry">
            <mxPoint x="693.93" y="783" as="targetPoint" />
            <mxPoint x="773.93" y="783" as="sourcePoint" />
          </mxGeometry>
        </mxCell>
        <mxCell id="2HA5Jx2y981VHuBSSjhP-146" style="edgeStyle=orthogonalEdgeStyle;rounded=0;orthogonalLoop=1;jettySize=auto;html=1;fontSize=23;endArrow=none;endFill=0;strokeWidth=3;fontFamily=Arial;align=center;fontStyle=2;" parent="tpW0L4eKJtAbM24Pp-hq-4" edge="1">
          <mxGeometry relative="1" as="geometry">
            <mxPoint x="700" y="378.47" as="sourcePoint" />
            <mxPoint x="1155.56" y="378.77" as="targetPoint" />
            <Array as="points">
              <mxPoint x="985.19" y="378.77" />
            </Array>
          </mxGeometry>
        </mxCell>
        <mxCell id="2HA5Jx2y981VHuBSSjhP-149" value="Коммутатор" style="text;html=1;strokeColor=none;fillColor=none;align=center;verticalAlign=middle;whiteSpace=wrap;rounded=0;dashed=1;fillStyle=auto;strokeWidth=2;fontFamily=Arial;fontSize=14;fontStyle=2;container=0;" parent="tpW0L4eKJtAbM24Pp-hq-4" vertex="1">
          <mxGeometry x="313.59" y="749.11" width="119.24" height="29.53" as="geometry" />
        </mxCell>
        <mxCell id="2HA5Jx2y981VHuBSSjhP-152" value="Беспроводная точка доступа Wi-Fi" style="text;html=1;strokeColor=none;fillColor=none;align=center;verticalAlign=middle;whiteSpace=wrap;rounded=0;dashed=1;fillStyle=auto;strokeWidth=2;fontFamily=Arial;fontSize=14;fontStyle=2;container=0;" parent="tpW0L4eKJtAbM24Pp-hq-4" vertex="1">
          <mxGeometry x="137.54999999999998" y="750.18" width="157.48" height="29.53" as="geometry" />
        </mxCell>
        <mxCell id="2HA5Jx2y981VHuBSSjhP-153" value="Беспроводное устройство" style="text;html=1;strokeColor=none;fillColor=none;align=center;verticalAlign=middle;whiteSpace=wrap;rounded=0;dashed=1;fillStyle=auto;strokeWidth=2;fontFamily=Arial;fontSize=14;fontStyle=2;container=0;" parent="tpW0L4eKJtAbM24Pp-hq-4" vertex="1">
          <mxGeometry x="176.91999999999993" y="874.4500000000002" width="78.74" height="29.53" as="geometry" />
        </mxCell>
        <mxCell id="2HA5Jx2y981VHuBSSjhP-154" value="Рабочая станция" style="text;html=1;strokeColor=none;fillColor=none;align=center;verticalAlign=middle;whiteSpace=wrap;rounded=0;dashed=1;fillStyle=auto;strokeWidth=2;fontFamily=Arial;fontSize=14;fontStyle=2;container=0;" parent="tpW0L4eKJtAbM24Pp-hq-4" vertex="1">
          <mxGeometry x="314.71999999999997" y="874.4499999999999" width="118.11" height="29.53" as="geometry" />
        </mxCell>
        <mxCell id="2HA5Jx2y981VHuBSSjhP-155" value="Принтер" style="text;html=1;strokeColor=none;fillColor=none;align=center;verticalAlign=middle;whiteSpace=wrap;rounded=0;dashed=1;fillStyle=auto;strokeWidth=2;fontFamily=Arial;fontSize=14;fontStyle=2;container=0;" parent="tpW0L4eKJtAbM24Pp-hq-4" vertex="1">
          <mxGeometry x="468.61000000000007" y="875.4900000000002" width="78.74" height="29.53" as="geometry" />
        </mxCell>
        <mxCell id="2HA5Jx2y981VHuBSSjhP-156" value="Web-сервер" style="text;html=1;strokeColor=none;fillColor=none;align=center;verticalAlign=middle;whiteSpace=wrap;rounded=0;dashed=1;fillStyle=auto;strokeWidth=2;fontFamily=Arial;fontSize=14;fontStyle=2;container=0;" parent="tpW0L4eKJtAbM24Pp-hq-4" vertex="1">
          <mxGeometry x="460.5900000000001" y="754.3399999999999" width="100" height="24.3" as="geometry" />
        </mxCell>
        <mxCell id="2HA5Jx2y981VHuBSSjhP-157" value="Витая пара UTP cat.5e" style="text;html=1;strokeColor=none;fillColor=none;align=center;verticalAlign=bottom;whiteSpace=wrap;rounded=0;dashed=1;fillStyle=auto;strokeWidth=2;fontFamily=Arial;fontSize=14;fontStyle=2;container=0;" parent="tpW0L4eKJtAbM24Pp-hq-4" vertex="1">
          <mxGeometry x="614.5599999999998" y="915.31" width="240" height="30" as="geometry" />
        </mxCell>
        <mxCell id="2HA5Jx2y981VHuBSSjhP-158" value="Шина кабелей UTP cat.5e" style="text;html=1;strokeColor=none;fillColor=none;align=center;verticalAlign=bottom;whiteSpace=wrap;rounded=0;dashed=1;fillStyle=auto;strokeWidth=2;fontFamily=Arial;fontSize=14;fontStyle=2;container=0;" parent="tpW0L4eKJtAbM24Pp-hq-4" vertex="1">
          <mxGeometry x="647.2099999999999" y="738.38" width="175.44" height="30" as="geometry" />
        </mxCell>
        <mxCell id="2HA5Jx2y981VHuBSSjhP-159" value="Dell PowerEdge T40" style="text;html=1;strokeColor=none;fillColor=none;align=center;verticalAlign=top;whiteSpace=wrap;rounded=0;dashed=1;fillStyle=auto;strokeWidth=2;fontFamily=Arial;fontSize=14;fontStyle=2;container=0;" parent="tpW0L4eKJtAbM24Pp-hq-4" vertex="1">
          <mxGeometry x="256.28999999999996" y="415.09000000000003" width="80" height="30" as="geometry" />
        </mxCell>
        <mxCell id="2HA5Jx2y981VHuBSSjhP-161" value="Switch" style="text;html=1;strokeColor=none;fillColor=none;align=center;verticalAlign=middle;whiteSpace=wrap;rounded=0;dashed=1;fillStyle=auto;strokeWidth=2;fontFamily=Arial;fontSize=14;fontStyle=2" parent="tpW0L4eKJtAbM24Pp-hq-4" vertex="1">
          <mxGeometry x="660" y="323.27000000000004" width="30" height="20" as="geometry" />
        </mxCell>
        <mxCell id="2HA5Jx2y981VHuBSSjhP-162" value="PC2" style="text;html=1;strokeColor=none;fillColor=none;align=center;verticalAlign=middle;whiteSpace=wrap;rounded=0;dashed=1;fillStyle=auto;strokeWidth=2;fontFamily=Arial;fontSize=14;fontStyle=2" parent="tpW0L4eKJtAbM24Pp-hq-4" vertex="1">
          <mxGeometry x="1074.56" y="233.47" width="80" height="20" as="geometry" />
        </mxCell>
        <mxCell id="2HA5Jx2y981VHuBSSjhP-163" value="PC1" style="text;html=1;strokeColor=none;fillColor=none;align=center;verticalAlign=middle;whiteSpace=wrap;rounded=0;dashed=1;fillStyle=auto;strokeWidth=2;fontFamily=Arial;fontSize=14;fontStyle=2" parent="tpW0L4eKJtAbM24Pp-hq-4" vertex="1">
          <mxGeometry x="914.56" y="233.47" width="80" height="20" as="geometry" />
        </mxCell>
        <mxCell id="2HA5Jx2y981VHuBSSjhP-165" value="P2" style="text;html=1;strokeColor=none;fillColor=none;align=center;verticalAlign=middle;whiteSpace=wrap;rounded=0;dashed=1;fillStyle=auto;strokeWidth=2;fontFamily=Arial;fontSize=14;fontStyle=2" parent="tpW0L4eKJtAbM24Pp-hq-4" vertex="1">
          <mxGeometry x="1235.56" y="245.9900000000001" width="80" height="20" as="geometry" />
        </mxCell>
        <mxCell id="2HA5Jx2y981VHuBSSjhP-166" value="P1" style="text;html=1;strokeColor=none;fillColor=none;align=center;verticalAlign=middle;whiteSpace=wrap;rounded=0;dashed=1;fillStyle=auto;strokeWidth=2;fontFamily=Arial;fontSize=14;fontStyle=2" parent="tpW0L4eKJtAbM24Pp-hq-4" vertex="1">
          <mxGeometry x="755.56" y="245.9900000000001" width="80" height="20" as="geometry" />
        </mxCell>
        <mxCell id="2HA5Jx2y981VHuBSSjhP-167" value="&lt;span&gt;&lt;font style=&quot;font-size: 24px;&quot;&gt;...&lt;/font&gt;&lt;/span&gt;" style="text;html=1;align=center;verticalAlign=middle;resizable=0;points=[];autosize=1;strokeColor=none;fillColor=none;fontSize=23;fontFamily=Arial;fontStyle=2" parent="tpW0L4eKJtAbM24Pp-hq-4" vertex="1">
          <mxGeometry x="1014.56" y="435.77" width="39.37" height="39.37" as="geometry" />
        </mxCell>
        <mxCell id="2HA5Jx2y981VHuBSSjhP-168" value="Dell Networking X1026" style="text;html=1;strokeColor=none;fillColor=none;align=center;verticalAlign=top;whiteSpace=wrap;rounded=0;dashed=1;fillStyle=auto;strokeWidth=2;fontFamily=Arial;fontSize=14;fontStyle=2;container=0;" parent="tpW0L4eKJtAbM24Pp-hq-4" vertex="1">
          <mxGeometry x="595.94" y="398.77" width="137.8" height="23" as="geometry" />
        </mxCell>
        <mxCell id="2HA5Jx2y981VHuBSSjhP-169" value="Dell B2360d" style="text;html=1;strokeColor=none;fillColor=none;align=center;verticalAlign=middle;whiteSpace=wrap;rounded=0;dashed=1;fillStyle=auto;strokeWidth=2;fontFamily=Arial;fontSize=14;fontStyle=2;container=0;" parent="tpW0L4eKJtAbM24Pp-hq-4" vertex="1">
          <mxGeometry x="738.3299999999999" y="309.99" width="108.26" height="20" as="geometry" />
        </mxCell>
        <mxCell id="2HA5Jx2y981VHuBSSjhP-170" value="Dell C2660d" style="text;html=1;strokeColor=none;fillColor=none;align=center;verticalAlign=middle;whiteSpace=wrap;rounded=0;dashed=1;fillStyle=auto;strokeWidth=2;fontFamily=Arial;fontSize=14;fontStyle=2;container=0;" parent="tpW0L4eKJtAbM24Pp-hq-4" vertex="1">
          <mxGeometry x="1214.77" y="304.99" width="118.11" height="23" as="geometry" />
        </mxCell>
        <mxCell id="2HA5Jx2y981VHuBSSjhP-236" style="edgeStyle=orthogonalEdgeStyle;rounded=0;orthogonalLoop=1;jettySize=auto;html=1;exitX=1;exitY=0;exitDx=0;exitDy=0;" parent="tpW0L4eKJtAbM24Pp-hq-4" source="2HA5Jx2y981VHuBSSjhP-171" target="2HA5Jx2y981VHuBSSjhP-135" edge="1">
          <mxGeometry relative="1" as="geometry" />
        </mxCell>
        <mxCell id="2HA5Jx2y981VHuBSSjhP-171" value="Dell Inspiron 24" style="text;html=1;strokeColor=none;fillColor=none;align=center;verticalAlign=middle;whiteSpace=wrap;rounded=0;dashed=1;fillStyle=auto;strokeWidth=2;fontFamily=Arial;fontSize=14;fontStyle=2;container=0;" parent="tpW0L4eKJtAbM24Pp-hq-4" vertex="1">
          <mxGeometry x="1020" y="338.77000000000004" width="95.56" height="20" as="geometry" />
        </mxCell>
        <mxCell id="2HA5Jx2y981VHuBSSjhP-172" value="Dell Inspiron 27" style="text;html=1;strokeColor=none;fillColor=none;align=center;verticalAlign=middle;whiteSpace=wrap;rounded=0;dashed=1;fillStyle=auto;strokeWidth=2;fontFamily=Arial;fontSize=14;fontStyle=2;container=0;" parent="tpW0L4eKJtAbM24Pp-hq-4" vertex="1">
          <mxGeometry x="850.5899999999999" y="338.77000000000004" width="98.09" height="20" as="geometry" />
        </mxCell>
        <mxCell id="2HA5Jx2y981VHuBSSjhP-173" value="PC3" style="text;html=1;strokeColor=none;fillColor=none;align=center;verticalAlign=middle;whiteSpace=wrap;rounded=0;dashed=1;fillStyle=auto;strokeWidth=2;fontFamily=Arial;fontSize=14;fontStyle=2" parent="tpW0L4eKJtAbM24Pp-hq-4" vertex="1">
          <mxGeometry x="874.9599999999999" y="410.77" width="80" height="20" as="geometry" />
        </mxCell>
        <mxCell id="2HA5Jx2y981VHuBSSjhP-174" value="PC15" style="text;html=1;strokeColor=none;fillColor=none;align=center;verticalAlign=middle;whiteSpace=wrap;rounded=0;dashed=1;fillStyle=auto;strokeWidth=2;fontFamily=Arial;fontSize=14;fontStyle=2" parent="tpW0L4eKJtAbM24Pp-hq-4" vertex="1">
          <mxGeometry x="1034.56" y="408.77" width="80" height="20" as="geometry" />
        </mxCell>
        <mxCell id="2HA5Jx2y981VHuBSSjhP-180" value="Dell Inspiron 27" style="text;html=1;strokeColor=none;fillColor=none;align=center;verticalAlign=top;whiteSpace=wrap;rounded=0;dashed=1;fillStyle=auto;strokeWidth=2;fontFamily=Arial;fontSize=14;fontStyle=2;container=0;" parent="tpW0L4eKJtAbM24Pp-hq-4" vertex="1">
          <mxGeometry x="905.7099999999999" y="498.57000000000005" width="98.44" height="20" as="geometry" />
        </mxCell>
        <mxCell id="2HA5Jx2y981VHuBSSjhP-181" value="Dell Inspiron 27" style="text;html=1;strokeColor=none;fillColor=none;align=center;verticalAlign=top;whiteSpace=wrap;rounded=0;dashed=1;fillStyle=auto;strokeWidth=2;fontFamily=Arial;fontSize=14;fontStyle=2;container=0;" parent="tpW0L4eKJtAbM24Pp-hq-4" vertex="1">
          <mxGeometry x="1065.86" y="498.57000000000005" width="88.44" height="20" as="geometry" />
        </mxCell>
        <mxCell id="2HA5Jx2y981VHuBSSjhP-182" value="Кабель Universal Serial Bus" style="text;html=1;strokeColor=none;fillColor=none;align=center;verticalAlign=bottom;whiteSpace=wrap;rounded=0;dashed=1;fillStyle=auto;strokeWidth=2;fontFamily=Arial;fontSize=14;fontStyle=2;container=0;" parent="tpW0L4eKJtAbM24Pp-hq-4" vertex="1">
          <mxGeometry x="612.4499999999999" y="855.31" width="240" height="30" as="geometry" />
        </mxCell>
        <mxCell id="2HA5Jx2y981VHuBSSjhP-183" value="Беспроводное соединение Wi-Fi" style="text;html=1;strokeColor=none;fillColor=none;align=center;verticalAlign=bottom;whiteSpace=wrap;rounded=0;dashed=1;fillStyle=auto;strokeWidth=2;fontFamily=Arial;fontSize=14;fontStyle=2;container=0;" parent="tpW0L4eKJtAbM24Pp-hq-4" vertex="1">
          <mxGeometry x="614.5599999999998" y="794" width="240" height="30" as="geometry" />
        </mxCell>
        <mxCell id="2HA5Jx2y981VHuBSSjhP-184" value="Устройства:" style="text;html=1;strokeColor=none;fillColor=none;align=left;verticalAlign=bottom;whiteSpace=wrap;rounded=0;dashed=1;fillStyle=auto;strokeWidth=2;fontFamily=Arial;fontSize=16;fontStyle=2;container=0;" parent="tpW0L4eKJtAbM24Pp-hq-4" vertex="1">
          <mxGeometry x="142.1" y="699" width="108.48" height="30" as="geometry" />
        </mxCell>
        <mxCell id="2HA5Jx2y981VHuBSSjhP-185" value="Соединения:" style="text;html=1;strokeColor=none;fillColor=none;align=left;verticalAlign=bottom;whiteSpace=wrap;rounded=0;dashed=1;fillStyle=auto;strokeWidth=2;fontFamily=Arial;fontSize=16;fontStyle=2;container=0;" parent="tpW0L4eKJtAbM24Pp-hq-4" vertex="1">
          <mxGeometry x="614.5599999999998" y="699" width="108.11" height="30" as="geometry" />
        </mxCell>
        <mxCell id="2HA5Jx2y981VHuBSSjhP-186" value="Условные графические обозначения:" style="text;html=1;strokeColor=none;fillColor=none;align=left;verticalAlign=bottom;whiteSpace=wrap;rounded=0;dashed=1;fillStyle=auto;strokeWidth=2;fontFamily=Arial;fontSize=18;fontStyle=2;container=0;" parent="tpW0L4eKJtAbM24Pp-hq-4" vertex="1">
          <mxGeometry x="142.1" y="649" width="327.9" height="30" as="geometry" />
        </mxCell>
        <mxCell id="2HA5Jx2y981VHuBSSjhP-187" value="" style="group;fontFamily=Arial;fontStyle=2" parent="tpW0L4eKJtAbM24Pp-hq-4" vertex="1" connectable="0">
          <mxGeometry x="860.56" y="280.99000000000024" width="30" height="10" as="geometry" />
        </mxCell>
        <mxCell id="2HA5Jx2y981VHuBSSjhP-188" value="" style="rounded=0;whiteSpace=wrap;html=1;fontFamily=Arial;fontStyle=2" parent="2HA5Jx2y981VHuBSSjhP-187" vertex="1">
          <mxGeometry width="30" height="10" as="geometry" />
        </mxCell>
        <mxCell id="2HA5Jx2y981VHuBSSjhP-189" value="" style="rounded=0;whiteSpace=wrap;html=1;fontFamily=Arial;fillColor=#000000;strokeColor=none;fontStyle=2" parent="2HA5Jx2y981VHuBSSjhP-187" vertex="1">
          <mxGeometry x="0.7502999999999247" width="5.9055" height="1.9685" as="geometry" />
        </mxCell>
        <mxCell id="2HA5Jx2y981VHuBSSjhP-190" value="" style="rounded=0;whiteSpace=wrap;html=1;fontFamily=Arial;fillColor=#000000;strokeColor=none;fontStyle=2" parent="2HA5Jx2y981VHuBSSjhP-187" vertex="1">
          <mxGeometry x="8.250299999999925" width="5.9055" height="1.9685" as="geometry" />
        </mxCell>
        <mxCell id="2HA5Jx2y981VHuBSSjhP-191" value="" style="rounded=0;whiteSpace=wrap;html=1;fontFamily=Arial;fillColor=#000000;strokeColor=none;fontStyle=2" parent="2HA5Jx2y981VHuBSSjhP-187" vertex="1">
          <mxGeometry x="15.750299999999925" width="5.9055" height="1.9685" as="geometry" />
        </mxCell>
        <mxCell id="2HA5Jx2y981VHuBSSjhP-192" value="" style="rounded=0;whiteSpace=wrap;html=1;fontFamily=Arial;fillColor=#000000;strokeColor=none;fontStyle=2" parent="2HA5Jx2y981VHuBSSjhP-187" vertex="1">
          <mxGeometry x="23.250299999999925" width="5.9055" height="1.9685" as="geometry" />
        </mxCell>
        <mxCell id="2HA5Jx2y981VHuBSSjhP-193" value="" style="group;fontFamily=Arial;fontStyle=2" parent="tpW0L4eKJtAbM24Pp-hq-4" vertex="1" connectable="0">
          <mxGeometry x="1180.56" y="280.9900000000001" width="30" height="10" as="geometry" />
        </mxCell>
        <mxCell id="2HA5Jx2y981VHuBSSjhP-194" value="" style="rounded=0;whiteSpace=wrap;html=1;fontFamily=Arial;fontStyle=2" parent="2HA5Jx2y981VHuBSSjhP-193" vertex="1">
          <mxGeometry width="30" height="10" as="geometry" />
        </mxCell>
        <mxCell id="2HA5Jx2y981VHuBSSjhP-195" value="" style="rounded=0;whiteSpace=wrap;html=1;fontFamily=Arial;fillColor=#000000;strokeColor=none;fontStyle=2" parent="2HA5Jx2y981VHuBSSjhP-193" vertex="1">
          <mxGeometry x="0.7502999999999247" width="5.9055" height="1.9685" as="geometry" />
        </mxCell>
        <mxCell id="2HA5Jx2y981VHuBSSjhP-196" value="" style="rounded=0;whiteSpace=wrap;html=1;fontFamily=Arial;fillColor=#000000;strokeColor=none;fontStyle=2" parent="2HA5Jx2y981VHuBSSjhP-193" vertex="1">
          <mxGeometry x="8.250299999999925" width="5.9055" height="1.9685" as="geometry" />
        </mxCell>
        <mxCell id="2HA5Jx2y981VHuBSSjhP-197" value="" style="rounded=0;whiteSpace=wrap;html=1;fontFamily=Arial;fillColor=#000000;strokeColor=none;fontStyle=2" parent="2HA5Jx2y981VHuBSSjhP-193" vertex="1">
          <mxGeometry x="15.750299999999925" width="5.9055" height="1.9685" as="geometry" />
        </mxCell>
        <mxCell id="2HA5Jx2y981VHuBSSjhP-198" value="" style="rounded=0;whiteSpace=wrap;html=1;fontFamily=Arial;fillColor=#000000;strokeColor=none;fontStyle=2" parent="2HA5Jx2y981VHuBSSjhP-193" vertex="1">
          <mxGeometry x="23.250299999999925" width="5.9055" height="1.9685" as="geometry" />
        </mxCell>
        <mxCell id="2HA5Jx2y981VHuBSSjhP-199" value="" style="group;fontFamily=Arial;fontStyle=2" parent="tpW0L4eKJtAbM24Pp-hq-4" vertex="1" connectable="0">
          <mxGeometry x="717.4499999999999" y="890.31" width="30" height="10" as="geometry" />
        </mxCell>
        <mxCell id="2HA5Jx2y981VHuBSSjhP-200" value="" style="rounded=0;whiteSpace=wrap;html=1;fontFamily=Arial;fontStyle=2" parent="2HA5Jx2y981VHuBSSjhP-199" vertex="1">
          <mxGeometry width="30" height="10" as="geometry" />
        </mxCell>
        <mxCell id="2HA5Jx2y981VHuBSSjhP-201" value="" style="rounded=0;whiteSpace=wrap;html=1;fontFamily=Arial;fillColor=#000000;strokeColor=none;fontStyle=2" parent="2HA5Jx2y981VHuBSSjhP-199" vertex="1">
          <mxGeometry x="0.7502999999999247" width="5.9055" height="1.9685" as="geometry" />
        </mxCell>
        <mxCell id="2HA5Jx2y981VHuBSSjhP-202" value="" style="rounded=0;whiteSpace=wrap;html=1;fontFamily=Arial;fillColor=#000000;strokeColor=none;fontStyle=2" parent="2HA5Jx2y981VHuBSSjhP-199" vertex="1">
          <mxGeometry x="8.250299999999925" width="5.9055" height="1.9685" as="geometry" />
        </mxCell>
        <mxCell id="2HA5Jx2y981VHuBSSjhP-203" value="" style="rounded=0;whiteSpace=wrap;html=1;fontFamily=Arial;fillColor=#000000;strokeColor=none;fontStyle=2" parent="2HA5Jx2y981VHuBSSjhP-199" vertex="1">
          <mxGeometry x="15.750299999999925" width="5.9055" height="1.9685" as="geometry" />
        </mxCell>
        <mxCell id="2HA5Jx2y981VHuBSSjhP-204" value="" style="rounded=0;whiteSpace=wrap;html=1;fontFamily=Arial;fillColor=#000000;strokeColor=none;fontStyle=2" parent="2HA5Jx2y981VHuBSSjhP-199" vertex="1">
          <mxGeometry x="23.250299999999925" width="5.9055" height="1.9685" as="geometry" />
        </mxCell>
        <mxCell id="2HA5Jx2y981VHuBSSjhP-216" style="edgeStyle=orthogonalEdgeStyle;rounded=0;orthogonalLoop=1;jettySize=auto;html=1;exitX=0.28;exitY=0.5;exitDx=0;exitDy=0;exitPerimeter=0;strokeWidth=1;fontFamily=Arial;fontSize=14;endArrow=none;endFill=0;dashed=1;align=center;fontStyle=2" parent="tpW0L4eKJtAbM24Pp-hq-4" source="2HA5Jx2y981VHuBSSjhP-221" edge="1">
          <mxGeometry relative="1" as="geometry">
            <mxPoint x="1315.56" y="388.77" as="targetPoint" />
            <Array as="points">
              <mxPoint x="1355.19" y="458.77" />
              <mxPoint x="1355.19" y="388.77" />
            </Array>
          </mxGeometry>
        </mxCell>
        <mxCell id="2HA5Jx2y981VHuBSSjhP-217" style="edgeStyle=orthogonalEdgeStyle;rounded=0;orthogonalLoop=1;jettySize=auto;html=1;strokeWidth=1;fontFamily=Arial;fontSize=14;endArrow=none;endFill=0;exitX=0.28;exitY=0.5;exitDx=0;exitDy=0;exitPerimeter=0;dashed=1;align=center;fontStyle=2" parent="tpW0L4eKJtAbM24Pp-hq-4" source="2HA5Jx2y981VHuBSSjhP-220" target="2HA5Jx2y981VHuBSSjhP-219" edge="1">
          <mxGeometry relative="1" as="geometry">
            <mxPoint x="1274.56" y="365.77" as="targetPoint" />
            <Array as="points">
              <mxPoint x="1355.56" y="298.77" />
              <mxPoint x="1355.56" y="368.77" />
            </Array>
          </mxGeometry>
        </mxCell>
        <mxCell id="2HA5Jx2y981VHuBSSjhP-219" value="" style="shape=mxgraph.cisco.misc.access_point;html=1;pointerEvents=1;dashed=0;fillColor=#000000;strokeColor=#E6E6E6;strokeWidth=2;verticalLabelPosition=bottom;verticalAlign=top;align=center;outlineConnect=0;fillStyle=auto;fontSize=23;aspect=fixed;fontFamily=Arial;fontStyle=2" parent="tpW0L4eKJtAbM24Pp-hq-4" vertex="1">
          <mxGeometry x="1235.56" y="361.18999999999994" width="78.74" height="36.26" as="geometry" />
        </mxCell>
        <mxCell id="2HA5Jx2y981VHuBSSjhP-220" value="" style="shape=mxgraph.cisco.computers_and_peripherals.laptop;sketch=0;html=1;pointerEvents=1;dashed=0;fillColor=#000000;strokeColor=#E6E6E6;strokeWidth=2;verticalLabelPosition=bottom;verticalAlign=top;align=center;outlineConnect=0;fillStyle=auto;fontSize=23;aspect=fixed;fontFamily=Arial;fontStyle=2" parent="tpW0L4eKJtAbM24Pp-hq-4" vertex="1">
          <mxGeometry x="1395.56" y="271.76999999999987" width="78.74" height="54.22" as="geometry" />
        </mxCell>
        <mxCell id="2HA5Jx2y981VHuBSSjhP-221" value="" style="shape=mxgraph.cisco.computers_and_peripherals.laptop;sketch=0;html=1;pointerEvents=1;dashed=0;fillColor=#000000;strokeColor=#E6E6E6;strokeWidth=2;verticalLabelPosition=bottom;verticalAlign=top;align=center;outlineConnect=0;fillStyle=auto;fontSize=23;aspect=fixed;fontFamily=Arial;fontStyle=2" parent="tpW0L4eKJtAbM24Pp-hq-4" vertex="1">
          <mxGeometry x="1395.56" y="431.7700000000001" width="78.74" height="54.22" as="geometry" />
        </mxCell>
        <mxCell id="2HA5Jx2y981VHuBSSjhP-222" value="Wireless 1" style="text;html=1;strokeColor=none;fillColor=none;align=center;verticalAlign=middle;whiteSpace=wrap;rounded=0;dashed=1;fillStyle=auto;strokeWidth=2;fontFamily=Arial;fontSize=14;fontStyle=2" parent="tpW0L4eKJtAbM24Pp-hq-4" vertex="1">
          <mxGeometry x="1382.0900000000001" y="248.76999999999995" width="108.27" height="20" as="geometry" />
        </mxCell>
        <mxCell id="2HA5Jx2y981VHuBSSjhP-223" value="Wireless 15" style="text;html=1;strokeColor=none;fillColor=none;align=center;verticalAlign=middle;whiteSpace=wrap;rounded=0;dashed=1;fillStyle=auto;strokeWidth=2;fontFamily=Arial;fontSize=14;fontStyle=2" parent="tpW0L4eKJtAbM24Pp-hq-4" vertex="1">
          <mxGeometry x="1391.94" y="408.77" width="88.58" height="20" as="geometry" />
        </mxCell>
        <mxCell id="2HA5Jx2y981VHuBSSjhP-224" value="&lt;span&gt;&lt;font style=&quot;font-size: 24px;&quot;&gt;...&lt;/font&gt;&lt;/span&gt;" style="text;html=1;align=center;verticalAlign=middle;resizable=0;points=[];autosize=1;strokeColor=none;fillColor=none;fontSize=23;fontFamily=Arial;fontStyle=2" parent="tpW0L4eKJtAbM24Pp-hq-4" vertex="1">
          <mxGeometry x="1415.56" y="358.7700000000002" width="39.37" height="39.37" as="geometry" />
        </mxCell>
        <mxCell id="2HA5Jx2y981VHuBSSjhP-225" value="AP" style="text;html=1;strokeColor=none;fillColor=none;align=center;verticalAlign=middle;whiteSpace=wrap;rounded=0;dashed=1;fillStyle=auto;strokeWidth=2;fontFamily=Arial;fontSize=14;fontStyle=2" parent="tpW0L4eKJtAbM24Pp-hq-4" vertex="1">
          <mxGeometry x="1235.56" y="338.77" width="80" height="20" as="geometry" />
        </mxCell>
        <mxCell id="2HA5Jx2y981VHuBSSjhP-228" value="&lt;p class=&quot;MsoNormal&quot;&gt;Dell Networking W-IAP115&lt;/p&gt;" style="text;html=1;strokeColor=none;fillColor=none;align=center;verticalAlign=top;whiteSpace=wrap;rounded=0;dashed=1;fillStyle=auto;strokeWidth=2;fontFamily=Arial;fontSize=14;fontStyle=2;container=0;" parent="tpW0L4eKJtAbM24Pp-hq-4" vertex="1">
          <mxGeometry x="1214.77" y="386.97" width="118.11" height="33.03" as="geometry" />
        </mxCell>
        <mxCell id="2HA5Jx2y981VHuBSSjhP-231" value="Gi0" style="text;html=1;strokeColor=none;fillColor=none;align=right;verticalAlign=middle;whiteSpace=wrap;rounded=0;dashed=1;fillStyle=auto;strokeWidth=2;fontFamily=Arial;fontSize=11;fontStyle=2" parent="tpW0L4eKJtAbM24Pp-hq-4" vertex="1">
          <mxGeometry x="1189.56" y="379.86" width="40" height="20" as="geometry" />
        </mxCell>
        <mxCell id="2HA5Jx2y981VHuBSSjhP-232" value="Gi1/0/18" style="text;html=1;strokeColor=none;fillColor=none;align=left;verticalAlign=middle;whiteSpace=wrap;rounded=0;dashed=1;fillStyle=auto;strokeWidth=2;fontFamily=Arial;fontSize=11;fontStyle=2" parent="tpW0L4eKJtAbM24Pp-hq-4" vertex="1">
          <mxGeometry x="1155.56" y="358.86" width="40" height="20" as="geometry" />
        </mxCell>
        <mxCell id="2HA5Jx2y981VHuBSSjhP-233" style="edgeStyle=orthogonalEdgeStyle;rounded=0;orthogonalLoop=1;jettySize=auto;html=1;strokeWidth=1;fontFamily=Arial;fontSize=14;endArrow=none;endFill=0;align=center;fontStyle=2" parent="tpW0L4eKJtAbM24Pp-hq-4" edge="1">
          <mxGeometry relative="1" as="geometry">
            <mxPoint x="1156.56" y="378.86" as="targetPoint" />
            <Array as="points">
              <mxPoint x="1196.56" y="379.86" />
            </Array>
            <mxPoint x="1236.19" y="378.86" as="sourcePoint" />
          </mxGeometry>
        </mxCell>
        <mxCell id="2HA5Jx2y981VHuBSSjhP-133" value="" style="shape=mxgraph.cisco.computers_and_peripherals.pc;sketch=0;html=1;pointerEvents=1;dashed=0;fillColor=#000000;strokeColor=#E6E6E6;strokeWidth=2;verticalLabelPosition=bottom;verticalAlign=top;align=center;outlineConnect=0;fontSize=23;fillStyle=auto;aspect=fixed;fontFamily=Arial;fontStyle=2" parent="tpW0L4eKJtAbM24Pp-hq-4" vertex="1">
          <mxGeometry x="916.8199999999999" y="255.09" width="78.74" height="71.8" as="geometry" />
        </mxCell>
        <mxCell id="2HA5Jx2y981VHuBSSjhP-135" value="" style="shape=mxgraph.cisco.computers_and_peripherals.pc;sketch=0;html=1;pointerEvents=1;dashed=0;fillColor=#000000;strokeColor=#E6E6E6;strokeWidth=2;verticalLabelPosition=bottom;verticalAlign=top;align=center;outlineConnect=0;fontSize=23;fillStyle=auto;aspect=fixed;fontFamily=Arial;fontStyle=2" parent="tpW0L4eKJtAbM24Pp-hq-4" vertex="1">
          <mxGeometry x="1076.56" y="255.09" width="78.74" height="71.8" as="geometry" />
        </mxCell>
        <mxCell id="2HA5Jx2y981VHuBSSjhP-237" value="Второй этаж" style="text;html=1;strokeColor=none;fillColor=none;align=left;verticalAlign=middle;whiteSpace=wrap;rounded=0;dashed=1;fillStyle=auto;strokeWidth=2;fontFamily=Arial;fontSize=18;fontStyle=2;container=0;" parent="tpW0L4eKJtAbM24Pp-hq-4" vertex="1">
          <mxGeometry x="222.1" y="203.03000000000003" width="121" height="19.69" as="geometry" />
        </mxCell>
        <mxCell id="2HA5Jx2y981VHuBSSjhP-238" value="" style="vsdxID=6;edgeStyle=none;dashed=1;dashPattern=12.00 4.00 4.00 4.00;startArrow=none;endArrow=none;startSize=5;endSize=5;strokeColor=default;spacingTop=0;spacingBottom=0;spacingLeft=0;spacingRight=0;verticalAlign=middle;html=1;labelBackgroundColor=#ffffff;rounded=0;strokeWidth=2;fontFamily=Arial;align=center;fontStyle=2" parent="tpW0L4eKJtAbM24Pp-hq-4" edge="1">
          <mxGeometry width="50" height="50" relative="1" as="geometry">
            <mxPoint x="1535" y="190" as="sourcePoint" />
            <mxPoint x="1535" y="190" as="targetPoint" />
            <Array as="points">
              <mxPoint x="1535" y="570" />
              <mxPoint x="210" y="566.47" />
              <mxPoint x="210" y="190.47" />
            </Array>
          </mxGeometry>
        </mxCell>
        <mxCell id="VTTHbeeDDdg8k31qhJ9O-9" value="" style="ellipse;shape=cloud;whiteSpace=wrap;html=1;" parent="tpW0L4eKJtAbM24Pp-hq-4" vertex="1">
          <mxGeometry x="156.29" y="1031" width="120" height="80" as="geometry" />
        </mxCell>
        <mxCell id="VTTHbeeDDdg8k31qhJ9O-10" value="Intranet" style="text;html=1;strokeColor=none;fillColor=none;align=center;verticalAlign=middle;whiteSpace=wrap;rounded=0;dashed=1;fillStyle=auto;strokeWidth=2;fontFamily=Arial;fontSize=14;fontStyle=2;container=0;" parent="tpW0L4eKJtAbM24Pp-hq-4" vertex="1">
          <mxGeometry x="137.32999999999998" y="1001.4699999999999" width="157.48" height="29.53" as="geometry" />
        </mxCell>
        <mxCell id="VTTHbeeDDdg8k31qhJ9O-21" style="edgeStyle=orthogonalEdgeStyle;rounded=0;orthogonalLoop=1;jettySize=auto;html=1;strokeWidth=1;fontFamily=Arial;fontSize=14;endArrow=none;endFill=0;dashed=1;align=center;fontStyle=2;dashPattern=1 2;" parent="tpW0L4eKJtAbM24Pp-hq-4" edge="1">
          <mxGeometry relative="1" as="geometry">
            <mxPoint x="774.5599999999998" y="1019" as="targetPoint" />
            <mxPoint x="694.5599999999998" y="1019" as="sourcePoint" />
          </mxGeometry>
        </mxCell>
        <mxCell id="VTTHbeeDDdg8k31qhJ9O-22" value="Оптоволоконное соединение" style="text;html=1;strokeColor=none;fillColor=none;align=center;verticalAlign=bottom;whiteSpace=wrap;rounded=0;dashed=1;fillStyle=auto;strokeWidth=2;fontFamily=Arial;fontSize=14;fontStyle=2;container=0;" parent="tpW0L4eKJtAbM24Pp-hq-4" vertex="1">
          <mxGeometry x="612.4499999999998" y="969.6199999999999" width="240" height="30" as="geometry" />
        </mxCell>
        <mxCell id="VTTHbeeDDdg8k31qhJ9O-23" style="edgeStyle=orthogonalEdgeStyle;rounded=0;orthogonalLoop=1;jettySize=auto;html=1;strokeWidth=1;fontFamily=Arial;fontSize=14;endArrow=none;endFill=0;dashed=1;align=center;fontStyle=2;dashPattern=1 2;" parent="tpW0L4eKJtAbM24Pp-hq-4" edge="1">
          <mxGeometry relative="1" as="geometry">
            <mxPoint x="535.72" y="246.59000000000003" as="targetPoint" />
            <mxPoint x="470" y="246.47" as="sourcePoint" />
            <Array as="points">
              <mxPoint x="500" y="246.47" />
            </Array>
          </mxGeometry>
        </mxCell>
        <mxCell id="VTTHbeeDDdg8k31qhJ9O-3" value="" style="ellipse;shape=cloud;whiteSpace=wrap;html=1;" parent="tpW0L4eKJtAbM24Pp-hq-4" vertex="1">
          <mxGeometry x="515.98" y="203.03" width="120" height="80" as="geometry" />
        </mxCell>
        <mxCell id="VTTHbeeDDdg8k31qhJ9O-27" value="192.168.100.2" style="text;html=1;strokeColor=none;fillColor=none;align=center;verticalAlign=top;whiteSpace=wrap;rounded=0;dashed=1;fillStyle=auto;strokeWidth=2;fontFamily=Arial;fontSize=14;fontStyle=2;container=0;" parent="tpW0L4eKJtAbM24Pp-hq-4" vertex="1">
          <mxGeometry x="1206.0299999999997" y="437.99" width="137.8" height="23" as="geometry" />
        </mxCell>
        <mxCell id="VTTHbeeDDdg8k31qhJ9O-28" value="192.168.100.3" style="text;html=1;strokeColor=none;fillColor=none;align=center;verticalAlign=top;whiteSpace=wrap;rounded=0;dashed=1;fillStyle=auto;strokeWidth=2;fontFamily=Arial;fontSize=14;fontStyle=2;container=0;" parent="tpW0L4eKJtAbM24Pp-hq-4" vertex="1">
          <mxGeometry x="1041.1799999999998" y="533.47" width="137.8" height="23" as="geometry" />
        </mxCell>
        <mxCell id="VTTHbeeDDdg8k31qhJ9O-29" value="192.168.10.4" style="text;html=1;strokeColor=none;fillColor=none;align=center;verticalAlign=top;whiteSpace=wrap;rounded=0;dashed=1;fillStyle=auto;strokeWidth=2;fontFamily=Arial;fontSize=14;fontStyle=2;container=0;" parent="tpW0L4eKJtAbM24Pp-hq-4" vertex="1">
          <mxGeometry x="885.6599999999999" y="533.47" width="137.8" height="23" as="geometry" />
        </mxCell>
        <mxCell id="VTTHbeeDDdg8k31qhJ9O-30" value="192.168.10.2" style="text;html=1;strokeColor=none;fillColor=none;align=center;verticalAlign=top;whiteSpace=wrap;rounded=0;dashed=1;fillStyle=auto;strokeWidth=2;fontFamily=Arial;fontSize=14;fontStyle=2;container=0;" parent="tpW0L4eKJtAbM24Pp-hq-4" vertex="1">
          <mxGeometry x="882.6499999999999" y="207.47" width="137.8" height="23" as="geometry" />
        </mxCell>
        <mxCell id="VTTHbeeDDdg8k31qhJ9O-31" value="192.168.10.3" style="text;html=1;strokeColor=none;fillColor=none;align=center;verticalAlign=top;whiteSpace=wrap;rounded=0;dashed=1;fillStyle=auto;strokeWidth=2;fontFamily=Arial;fontSize=14;fontStyle=2;container=0;" parent="tpW0L4eKJtAbM24Pp-hq-4" vertex="1">
          <mxGeometry x="1047.0299999999997" y="210.47" width="137.8" height="23" as="geometry" />
        </mxCell>
        <mxCell id="VTTHbeeDDdg8k31qhJ9O-32" value="192.168.20.2" style="text;html=1;strokeColor=none;fillColor=none;align=center;verticalAlign=top;whiteSpace=wrap;rounded=0;dashed=1;fillStyle=auto;strokeWidth=2;fontFamily=Arial;fontSize=14;fontStyle=2;container=0;" parent="tpW0L4eKJtAbM24Pp-hq-4" vertex="1">
          <mxGeometry x="231.09999999999985" y="468.57000000000005" width="137.8" height="23" as="geometry" />
        </mxCell>
        <mxCell id="nQUO9YBrfAWf4ZfZOAfm-2" value="" style="shape=mxgraph.cisco.switches.workgroup_switch;sketch=0;html=1;pointerEvents=1;dashed=0;fillColor=#000000;strokeColor=#E6E6E6;strokeWidth=2;verticalLabelPosition=bottom;verticalAlign=top;align=center;outlineConnect=0;fontSize=23;fillStyle=auto;aspect=fixed;fontFamily=Arial;fontStyle=2" parent="tpW0L4eKJtAbM24Pp-hq-4" vertex="1">
          <mxGeometry x="628.47" y="353.7035000000001" width="78.74" height="44.44" as="geometry" />
        </mxCell>
        <mxCell id="nQUO9YBrfAWf4ZfZOAfm-8" value="192.168.100.1" style="text;html=1;strokeColor=none;fillColor=none;align=center;verticalAlign=top;whiteSpace=wrap;rounded=0;dashed=1;fillStyle=auto;strokeWidth=2;fontFamily=Arial;fontSize=14;fontStyle=2;container=0;" parent="tpW0L4eKJtAbM24Pp-hq-4" vertex="1">
          <mxGeometry x="595.94" y="435.98999999999995" width="137.8" height="23" as="geometry" />
        </mxCell>
        <mxCell id="nQUO9YBrfAWf4ZfZOAfm-11" style="edgeStyle=orthogonalEdgeStyle;rounded=0;orthogonalLoop=1;jettySize=auto;html=1;strokeWidth=1;fontFamily=Arial;fontSize=14;endArrow=none;endFill=0;dashed=1;align=center;fontStyle=2;dashPattern=1 2;exitX=0.492;exitY=-0.016;exitDx=0;exitDy=0;exitPerimeter=0;" parent="tpW0L4eKJtAbM24Pp-hq-4" source="nQUO9YBrfAWf4ZfZOAfm-3" edge="1">
          <mxGeometry relative="1" as="geometry">
            <mxPoint x="470" y="248.47" as="targetPoint" />
            <mxPoint x="470" y="326.47" as="sourcePoint" />
            <Array as="points">
              <mxPoint x="470" y="248.47" />
            </Array>
          </mxGeometry>
        </mxCell>
        <mxCell id="nQUO9YBrfAWf4ZfZOAfm-12" value="" style="shape=mxgraph.cisco.switches.workgroup_switch;sketch=0;html=1;pointerEvents=1;dashed=0;fillColor=#000000;strokeColor=#E6E6E6;strokeWidth=2;verticalLabelPosition=bottom;verticalAlign=top;align=center;outlineConnect=0;fontSize=23;fillStyle=auto;aspect=fixed;fontFamily=Arial;fontStyle=2" parent="tpW0L4eKJtAbM24Pp-hq-4" vertex="1">
          <mxGeometry x="331" y="797.1535" width="78.74" height="44.44" as="geometry" />
        </mxCell>
        <mxCell id="nQUO9YBrfAWf4ZfZOAfm-13" value="" style="shape=mxgraph.cisco.routers.router;sketch=0;html=1;pointerEvents=1;dashed=0;fillColor=#000000;strokeColor=#E6E6E6;strokeWidth=2;verticalLabelPosition=bottom;verticalAlign=top;align=center;outlineConnect=0;fontSize=23;fillStyle=auto;aspect=fixed;fontFamily=Arial;fontStyle=2" parent="tpW0L4eKJtAbM24Pp-hq-4" vertex="1">
          <mxGeometry x="331.00000000000006" y="1043.82" width="78.74" height="54.36" as="geometry" />
        </mxCell>
        <mxCell id="nQUO9YBrfAWf4ZfZOAfm-14" value="Маршрутизатор" style="text;html=1;strokeColor=none;fillColor=none;align=center;verticalAlign=middle;whiteSpace=wrap;rounded=0;dashed=1;fillStyle=auto;strokeWidth=2;fontFamily=Arial;fontSize=14;fontStyle=2;container=0;" parent="tpW0L4eKJtAbM24Pp-hq-4" vertex="1">
          <mxGeometry x="310.75" y="1001.47" width="119.24" height="29.53" as="geometry" />
        </mxCell>
        <mxCell id="nQUO9YBrfAWf4ZfZOAfm-15" value="&lt;span style=&quot;font-size: 11px;&quot;&gt;Gi1/0/1&lt;/span&gt;" style="text;html=1;strokeColor=none;fillColor=none;align=right;verticalAlign=middle;whiteSpace=wrap;rounded=0;dashed=1;fillStyle=auto;strokeWidth=2;fontFamily=Arial;fontSize=11;fontStyle=2" parent="tpW0L4eKJtAbM24Pp-hq-4" vertex="1">
          <mxGeometry x="711.56" y="382.77" width="40" height="20" as="geometry" />
        </mxCell>
        <mxCell id="nQUO9YBrfAWf4ZfZOAfm-16" value="&lt;span style=&quot;font-size: 11px;&quot;&gt;Gi1/0/2&lt;/span&gt;" style="text;html=1;strokeColor=none;fillColor=none;align=right;verticalAlign=middle;whiteSpace=wrap;rounded=0;dashed=1;fillStyle=auto;strokeWidth=2;fontFamily=Arial;fontSize=11;fontStyle=2" parent="tpW0L4eKJtAbM24Pp-hq-4" vertex="1">
          <mxGeometry x="790" y="382.77" width="40" height="20" as="geometry" />
        </mxCell>
        <mxCell id="nQUO9YBrfAWf4ZfZOAfm-17" value="ether1" style="text;html=1;strokeColor=none;fillColor=none;align=right;verticalAlign=middle;whiteSpace=wrap;rounded=0;dashed=1;fillStyle=auto;strokeWidth=2;fontFamily=Arial;fontSize=11;fontStyle=2" parent="tpW0L4eKJtAbM24Pp-hq-4" vertex="1">
          <mxGeometry x="711.56" y="485.99" width="40" height="20" as="geometry" />
        </mxCell>
        <mxCell id="nQUO9YBrfAWf4ZfZOAfm-18" value="ether2" style="text;html=1;strokeColor=none;fillColor=none;align=right;verticalAlign=middle;whiteSpace=wrap;rounded=0;dashed=1;fillStyle=auto;strokeWidth=2;fontFamily=Arial;fontSize=11;fontStyle=2" parent="tpW0L4eKJtAbM24Pp-hq-4" vertex="1">
          <mxGeometry x="787" y="485.99" width="40" height="20" as="geometry" />
        </mxCell>
        <mxCell id="nQUO9YBrfAWf4ZfZOAfm-19" value="sfp" style="text;html=1;strokeColor=none;fillColor=none;align=right;verticalAlign=middle;whiteSpace=wrap;rounded=0;dashed=1;fillStyle=auto;strokeWidth=2;fontFamily=Arial;fontSize=11;fontStyle=2" parent="tpW0L4eKJtAbM24Pp-hq-4" vertex="1">
          <mxGeometry x="464" y="327.89000000000004" width="29.74" height="20" as="geometry" />
        </mxCell>
        <mxCell id="nQUO9YBrfAWf4ZfZOAfm-21" value="MikroTik RB5009UG+S+IN" style="text;html=1;strokeColor=none;fillColor=none;align=center;verticalAlign=top;whiteSpace=wrap;rounded=0;dashed=1;fillStyle=auto;strokeWidth=2;fontFamily=Arial;fontSize=14;fontStyle=2;container=0;" parent="tpW0L4eKJtAbM24Pp-hq-4" vertex="1">
          <mxGeometry x="474" y="397.45000000000005" width="118.47" height="23" as="geometry" />
        </mxCell>
        <mxCell id="nQUO9YBrfAWf4ZfZOAfm-24" style="edgeStyle=orthogonalEdgeStyle;rounded=0;orthogonalLoop=1;jettySize=auto;html=1;exitX=0;exitY=0;exitDx=0;exitDy=0;endArrow=none;endFill=0;fontFamily=Arial;align=center;fontStyle=2" parent="tpW0L4eKJtAbM24Pp-hq-4" edge="1">
          <mxGeometry relative="1" as="geometry">
            <mxPoint x="750" y="509" as="targetPoint" />
            <mxPoint x="755.56" y="378.85999999999996" as="sourcePoint" />
            <Array as="points">
              <mxPoint x="755.56" y="448.85999999999996" />
              <mxPoint x="755.56" y="448.85999999999996" />
            </Array>
          </mxGeometry>
        </mxCell>
        <mxCell id="nQUO9YBrfAWf4ZfZOAfm-25" style="edgeStyle=orthogonalEdgeStyle;rounded=0;orthogonalLoop=1;jettySize=auto;html=1;fontSize=23;endArrow=none;endFill=0;strokeWidth=3;fontFamily=Arial;align=center;fontStyle=2;" parent="tpW0L4eKJtAbM24Pp-hq-4" edge="1">
          <mxGeometry relative="1" as="geometry">
            <mxPoint x="470" y="509" as="sourcePoint" />
            <mxPoint x="788" y="509" as="targetPoint" />
            <Array as="points">
              <mxPoint x="714.1899999999999" y="508.58" />
            </Array>
          </mxGeometry>
        </mxCell>
        <mxCell id="nQUO9YBrfAWf4ZfZOAfm-26" style="edgeStyle=orthogonalEdgeStyle;rounded=0;orthogonalLoop=1;jettySize=auto;html=1;exitX=0;exitY=0;exitDx=0;exitDy=0;endArrow=none;endFill=0;fontFamily=Arial;align=center;fontStyle=2" parent="tpW0L4eKJtAbM24Pp-hq-4" edge="1">
          <mxGeometry relative="1" as="geometry">
            <mxPoint x="782" y="508" as="targetPoint" />
            <mxPoint x="787.56" y="377.85999999999996" as="sourcePoint" />
            <Array as="points">
              <mxPoint x="787.56" y="447.85999999999996" />
              <mxPoint x="787.56" y="447.85999999999996" />
            </Array>
          </mxGeometry>
        </mxCell>
        <mxCell id="nQUO9YBrfAWf4ZfZOAfm-27" style="edgeStyle=orthogonalEdgeStyle;rounded=0;orthogonalLoop=1;jettySize=auto;html=1;fontSize=23;endArrow=none;endFill=0;strokeWidth=3;fontFamily=Arial;align=center;fontStyle=2;" parent="tpW0L4eKJtAbM24Pp-hq-4" edge="1">
          <mxGeometry relative="1" as="geometry">
            <mxPoint x="477.8900000000001" y="399.86" as="sourcePoint" />
            <mxPoint x="470" y="510" as="targetPoint" />
            <Array as="points">
              <mxPoint x="470.19000000000005" y="399.8599999999999" />
            </Array>
          </mxGeometry>
        </mxCell>
        <mxCell id="nQUO9YBrfAWf4ZfZOAfm-3" value="" style="shape=mxgraph.cisco.routers.router;sketch=0;html=1;pointerEvents=1;dashed=0;fillColor=#000000;strokeColor=#E6E6E6;strokeWidth=2;verticalLabelPosition=bottom;verticalAlign=top;align=center;outlineConnect=0;fontSize=23;fillStyle=auto;aspect=fixed;fontFamily=Arial;fontStyle=2" parent="tpW0L4eKJtAbM24Pp-hq-4" vertex="1">
          <mxGeometry x="431.00000000000006" y="349.40999999999997" width="78.74" height="54.36" as="geometry" />
        </mxCell>
        <mxCell id="nQUO9YBrfAWf4ZfZOAfm-28" value="192.168.100.4" style="text;html=1;strokeColor=none;fillColor=none;align=center;verticalAlign=top;whiteSpace=wrap;rounded=0;dashed=1;fillStyle=auto;strokeWidth=2;fontFamily=Arial;fontSize=14;fontStyle=2;container=0;" parent="tpW0L4eKJtAbM24Pp-hq-4" vertex="1">
          <mxGeometry x="460.59000000000003" y="435.7699999999999" width="137.8" height="23" as="geometry" />
        </mxCell>
        <mxCell id="nQUO9YBrfAWf4ZfZOAfm-29" value="Router" style="text;html=1;strokeColor=none;fillColor=none;align=center;verticalAlign=middle;whiteSpace=wrap;rounded=0;dashed=1;fillStyle=auto;strokeWidth=2;fontFamily=Arial;fontSize=14;fontStyle=2" parent="tpW0L4eKJtAbM24Pp-hq-4" vertex="1">
          <mxGeometry x="420" y="323.27000000000004" width="30" height="20" as="geometry" />
        </mxCell>
        <mxCell id="nQUO9YBrfAWf4ZfZOAfm-30" value="Server" style="text;html=1;strokeColor=none;fillColor=none;align=center;verticalAlign=middle;whiteSpace=wrap;rounded=0;dashed=1;fillStyle=auto;strokeWidth=2;fontFamily=Arial;fontSize=14;fontStyle=2" parent="tpW0L4eKJtAbM24Pp-hq-4" vertex="1">
          <mxGeometry x="280.65999999999997" y="304.49" width="30" height="20" as="geometry" />
        </mxCell>
        <mxCell id="tpW0L4eKJtAbM24Pp-hq-6" value="Рамка" parent="0" />
        <mxCell id="Izu4CDzaR0ki_h7jihql-112" style="vsdxID=3;fillColor=#FFFFFF;gradientColor=none;shape=stencil(nY9LDoAgDERP0z3SI/i5BwkoRAUC+Lu9kGo0Lt3NtK/tFLCOWngFnMUU3Kg2I5MGbIBzY7UKJmUF2ALWvQtqCG6xkrwXhSxqdmvZsNNcxViZ4ewgT64jdDL2hf4E7wsXmsWThd549765c4l+xvYE);strokeColor=#000000;strokeWidth=4;spacingTop=-1;spacingBottom=-1;spacingLeft=-1;spacingRight=-1;labelBackgroundColor=#ffffff;rounded=0;html=1;whiteSpace=wrap;fontFamily=Arial;fontStyle=2" parent="tpW0L4eKJtAbM24Pp-hq-6" vertex="1">
          <mxGeometry x="911.88" y="938.2" width="740" height="220" as="geometry" />
        </mxCell>
        <mxCell id="Izu4CDzaR0ki_h7jihql-113" style="vsdxID=28;edgeStyle=none;startArrow=none;endArrow=none;startSize=5;endSize=5;strokeWidth=4;strokeColor=#000000;spacingTop=-1;spacingBottom=-1;spacingLeft=-1;spacingRight=-1;verticalAlign=middle;html=1;labelBackgroundColor=#ffffff;rounded=0;fontFamily=Arial;fontStyle=2" parent="tpW0L4eKJtAbM24Pp-hq-6" edge="1">
          <mxGeometry relative="1" as="geometry">
            <Array as="points" />
            <mxPoint x="939.8800000000001" y="938.1999999999998" as="sourcePoint" />
            <mxPoint x="939.8800000000001" y="1038.1999999999998" as="targetPoint" />
          </mxGeometry>
        </mxCell>
        <mxCell id="Izu4CDzaR0ki_h7jihql-114" style="vsdxID=27;edgeStyle=none;startArrow=none;endArrow=none;startSize=5;endSize=5;strokeColor=#000000;spacingTop=-1;spacingBottom=-1;spacingLeft=-1;spacingRight=-1;verticalAlign=middle;html=1;labelBackgroundColor=#ffffff;rounded=0;fontFamily=Arial;fontStyle=2" parent="tpW0L4eKJtAbM24Pp-hq-6" edge="1">
          <mxGeometry relative="1" as="geometry">
            <mxPoint as="offset" />
            <Array as="points" />
            <mxPoint x="911.8800000000001" y="1138.1999999999998" as="sourcePoint" />
            <mxPoint x="1171.88" y="1138.1999999999998" as="targetPoint" />
          </mxGeometry>
        </mxCell>
        <mxCell id="Izu4CDzaR0ki_h7jihql-115" style="vsdxID=26;edgeStyle=none;startArrow=none;endArrow=none;startSize=5;endSize=5;strokeColor=#000000;spacingTop=-1;spacingBottom=-1;spacingLeft=-1;spacingRight=-1;verticalAlign=middle;html=1;labelBackgroundColor=#ffffff;rounded=0;fontFamily=Arial;fontStyle=2" parent="tpW0L4eKJtAbM24Pp-hq-6" edge="1">
          <mxGeometry relative="1" as="geometry">
            <mxPoint as="offset" />
            <Array as="points" />
            <mxPoint x="911.8800000000001" y="1118.1999999999998" as="sourcePoint" />
            <mxPoint x="1171.88" y="1118.1999999999998" as="targetPoint" />
          </mxGeometry>
        </mxCell>
        <mxCell id="Izu4CDzaR0ki_h7jihql-116" style="vsdxID=25;edgeStyle=none;startArrow=none;endArrow=none;startSize=5;endSize=5;strokeColor=#000000;spacingTop=-1;spacingBottom=-1;spacingLeft=-1;spacingRight=-1;verticalAlign=middle;html=1;labelBackgroundColor=#ffffff;rounded=0;fontFamily=Arial;fontStyle=2" parent="tpW0L4eKJtAbM24Pp-hq-6" edge="1">
          <mxGeometry relative="1" as="geometry">
            <mxPoint as="offset" />
            <Array as="points" />
            <mxPoint x="911.8800000000001" y="1098.1999999999998" as="sourcePoint" />
            <mxPoint x="1171.88" y="1098.1999999999998" as="targetPoint" />
          </mxGeometry>
        </mxCell>
        <mxCell id="Izu4CDzaR0ki_h7jihql-117" style="vsdxID=24;edgeStyle=none;startArrow=none;endArrow=none;startSize=5;endSize=5;strokeColor=#000000;spacingTop=-1;spacingBottom=-1;spacingLeft=-1;spacingRight=-1;verticalAlign=middle;html=1;labelBackgroundColor=#ffffff;rounded=0;fontFamily=Arial;fontStyle=2" parent="tpW0L4eKJtAbM24Pp-hq-6" edge="1">
          <mxGeometry relative="1" as="geometry">
            <mxPoint as="offset" />
            <Array as="points" />
            <mxPoint x="911.8800000000001" y="1078.1999999999998" as="sourcePoint" />
            <mxPoint x="1171.88" y="1078.1999999999998" as="targetPoint" />
          </mxGeometry>
        </mxCell>
        <mxCell id="Izu4CDzaR0ki_h7jihql-118" style="vsdxID=23;edgeStyle=none;startArrow=none;endArrow=none;startSize=5;endSize=5;strokeColor=#000000;spacingTop=-1;spacingBottom=-1;spacingLeft=-1;spacingRight=-1;verticalAlign=middle;html=1;labelBackgroundColor=#ffffff;rounded=0;fontFamily=Arial;fontStyle=2" parent="tpW0L4eKJtAbM24Pp-hq-6" edge="1">
          <mxGeometry relative="1" as="geometry">
            <mxPoint as="offset" />
            <Array as="points" />
            <mxPoint x="911.8800000000001" y="1058.1999999999998" as="sourcePoint" />
            <mxPoint x="1171.88" y="1058.1999999999998" as="targetPoint" />
          </mxGeometry>
        </mxCell>
        <mxCell id="Izu4CDzaR0ki_h7jihql-119" style="vsdxID=22;edgeStyle=none;startArrow=none;endArrow=none;startSize=5;endSize=5;strokeWidth=4;strokeColor=#000000;spacingTop=-1;spacingBottom=-1;spacingLeft=-1;spacingRight=-1;verticalAlign=middle;html=1;labelBackgroundColor=#ffffff;rounded=0;fontFamily=Arial;fontStyle=2" parent="tpW0L4eKJtAbM24Pp-hq-6" edge="1">
          <mxGeometry relative="1" as="geometry">
            <mxPoint as="offset" />
            <Array as="points" />
            <mxPoint x="911.8800000000001" y="1038.1999999999998" as="sourcePoint" />
            <mxPoint x="1171.88" y="1038.1999999999998" as="targetPoint" />
          </mxGeometry>
        </mxCell>
        <mxCell id="Izu4CDzaR0ki_h7jihql-120" style="vsdxID=21;edgeStyle=none;startArrow=none;endArrow=none;startSize=5;endSize=5;strokeWidth=4;strokeColor=#000000;spacingTop=-1;spacingBottom=-1;spacingLeft=-1;spacingRight=-1;verticalAlign=middle;html=1;labelBackgroundColor=#ffffff;rounded=0;fontFamily=Arial;fontStyle=2" parent="tpW0L4eKJtAbM24Pp-hq-6" edge="1">
          <mxGeometry relative="1" as="geometry">
            <mxPoint as="offset" />
            <Array as="points" />
            <mxPoint x="911.8800000000001" y="1018.1999999999998" as="sourcePoint" />
            <mxPoint x="1171.88" y="1018.1999999999998" as="targetPoint" />
          </mxGeometry>
        </mxCell>
        <mxCell id="Izu4CDzaR0ki_h7jihql-121" style="vsdxID=20;edgeStyle=none;startArrow=none;endArrow=none;startSize=5;endSize=5;strokeColor=#000000;spacingTop=-1;spacingBottom=-1;spacingLeft=-1;spacingRight=-1;verticalAlign=middle;html=1;labelBackgroundColor=#ffffff;rounded=0;fontFamily=Arial;fontStyle=2" parent="tpW0L4eKJtAbM24Pp-hq-6" edge="1">
          <mxGeometry relative="1" as="geometry">
            <mxPoint as="offset" />
            <Array as="points" />
            <mxPoint x="911.8800000000001" y="998.1999999999998" as="sourcePoint" />
            <mxPoint x="1171.88" y="998.1999999999998" as="targetPoint" />
          </mxGeometry>
        </mxCell>
        <mxCell id="Izu4CDzaR0ki_h7jihql-122" style="vsdxID=19;edgeStyle=none;startArrow=none;endArrow=none;startSize=5;endSize=5;strokeColor=#000000;spacingTop=-1;spacingBottom=-1;spacingLeft=-1;spacingRight=-1;verticalAlign=middle;html=1;labelBackgroundColor=#ffffff;rounded=0;fontFamily=Arial;fontStyle=2" parent="tpW0L4eKJtAbM24Pp-hq-6" edge="1">
          <mxGeometry relative="1" as="geometry">
            <mxPoint as="offset" />
            <Array as="points" />
            <mxPoint x="911.8800000000001" y="978.1999999999998" as="sourcePoint" />
            <mxPoint x="1171.88" y="978.1999999999998" as="targetPoint" />
          </mxGeometry>
        </mxCell>
        <mxCell id="Izu4CDzaR0ki_h7jihql-123" style="vsdxID=18;edgeStyle=none;startArrow=none;endArrow=none;startSize=5;endSize=5;strokeColor=#000000;spacingTop=-1;spacingBottom=-1;spacingLeft=-1;spacingRight=-1;verticalAlign=middle;html=1;labelBackgroundColor=#ffffff;rounded=0;fontFamily=Arial;fontStyle=2" parent="tpW0L4eKJtAbM24Pp-hq-6" edge="1">
          <mxGeometry relative="1" as="geometry">
            <mxPoint as="offset" />
            <Array as="points" />
            <mxPoint x="911.8800000000001" y="958.1999999999998" as="sourcePoint" />
            <mxPoint x="1171.88" y="958.1999999999998" as="targetPoint" />
          </mxGeometry>
        </mxCell>
        <mxCell id="Izu4CDzaR0ki_h7jihql-124" style="vsdxID=17;edgeStyle=none;startArrow=none;endArrow=none;startSize=5;endSize=5;strokeWidth=4;strokeColor=#000000;spacingTop=-1;spacingBottom=-1;spacingLeft=-1;spacingRight=-1;verticalAlign=middle;html=1;labelBackgroundColor=#ffffff;rounded=0;fontFamily=Arial;fontStyle=2" parent="tpW0L4eKJtAbM24Pp-hq-6" edge="1">
          <mxGeometry relative="1" as="geometry">
            <Array as="points" />
            <mxPoint x="979.8800000000001" y="938.1999999999998" as="sourcePoint" />
            <mxPoint x="979.8800000000001" y="1158.1999999999998" as="targetPoint" />
          </mxGeometry>
        </mxCell>
        <mxCell id="Izu4CDzaR0ki_h7jihql-125" style="vsdxID=16;edgeStyle=none;startArrow=none;endArrow=none;startSize=5;endSize=5;strokeWidth=4;strokeColor=#000000;spacingTop=-1;spacingBottom=-1;spacingLeft=-1;spacingRight=-1;verticalAlign=middle;html=1;labelBackgroundColor=#ffffff;rounded=0;fontFamily=Arial;fontStyle=2" parent="tpW0L4eKJtAbM24Pp-hq-6" edge="1">
          <mxGeometry relative="1" as="geometry">
            <Array as="points" />
            <mxPoint x="1071.88" y="938.1999999999998" as="sourcePoint" />
            <mxPoint x="1071.88" y="1158.1999999999998" as="targetPoint" />
          </mxGeometry>
        </mxCell>
        <mxCell id="Izu4CDzaR0ki_h7jihql-126" style="vsdxID=15;edgeStyle=none;startArrow=none;endArrow=none;startSize=5;endSize=5;strokeWidth=4;strokeColor=#000000;spacingTop=-1;spacingBottom=-1;spacingLeft=-1;spacingRight=-1;verticalAlign=middle;html=1;labelBackgroundColor=#ffffff;rounded=0;fontFamily=Arial;fontStyle=2" parent="tpW0L4eKJtAbM24Pp-hq-6" edge="1">
          <mxGeometry relative="1" as="geometry">
            <Array as="points" />
            <mxPoint x="1131.88" y="938.1999999999998" as="sourcePoint" />
            <mxPoint x="1131.88" y="1158.1999999999998" as="targetPoint" />
          </mxGeometry>
        </mxCell>
        <mxCell id="Izu4CDzaR0ki_h7jihql-127" style="vsdxID=14;edgeStyle=none;startArrow=none;endArrow=none;startSize=5;endSize=5;strokeWidth=4;strokeColor=#000000;spacingTop=-1;spacingBottom=-1;spacingLeft=-1;spacingRight=-1;verticalAlign=middle;html=1;labelBackgroundColor=#ffffff;rounded=0;fontFamily=Arial;fontStyle=2" parent="tpW0L4eKJtAbM24Pp-hq-6" edge="1">
          <mxGeometry relative="1" as="geometry">
            <Array as="points" />
            <mxPoint x="1581.88" y="998.1999999999998" as="sourcePoint" />
            <mxPoint x="1581.88" y="1078.1999999999998" as="targetPoint" />
          </mxGeometry>
        </mxCell>
        <mxCell id="Izu4CDzaR0ki_h7jihql-128" style="vsdxID=11;edgeStyle=none;startArrow=none;endArrow=none;startSize=5;endSize=5;strokeWidth=4;strokeColor=#000000;spacingTop=-1;spacingBottom=-1;spacingLeft=-1;spacingRight=-1;verticalAlign=middle;html=1;labelBackgroundColor=#ffffff;rounded=0;fontFamily=Arial;fontStyle=2" parent="tpW0L4eKJtAbM24Pp-hq-6" edge="1">
          <mxGeometry relative="1" as="geometry">
            <Array as="points" />
            <mxPoint x="1531.88" y="1078.1999999999998" as="sourcePoint" />
            <mxPoint x="1531.88" y="1098.1999999999998" as="targetPoint" />
          </mxGeometry>
        </mxCell>
        <mxCell id="Izu4CDzaR0ki_h7jihql-129" style="vsdxID=10;edgeStyle=none;startArrow=none;endArrow=none;startSize=5;endSize=5;strokeWidth=4;strokeColor=#000000;spacingTop=-1;spacingBottom=-1;spacingLeft=-1;spacingRight=-1;verticalAlign=middle;html=1;labelBackgroundColor=#ffffff;rounded=0;fontFamily=Arial;fontStyle=2" parent="tpW0L4eKJtAbM24Pp-hq-6" edge="1">
          <mxGeometry relative="1" as="geometry">
            <Array as="points" />
            <mxPoint x="1511.88" y="998.1999999999998" as="sourcePoint" />
            <mxPoint x="1511.88" y="1078.1999999999998" as="targetPoint" />
          </mxGeometry>
        </mxCell>
        <mxCell id="Izu4CDzaR0ki_h7jihql-130" style="vsdxID=273;edgeStyle=none;startArrow=none;endArrow=none;startSize=5;endSize=5;strokeWidth=4;strokeColor=#000000;spacingTop=-1;spacingBottom=-1;spacingLeft=-1;spacingRight=-1;verticalAlign=middle;html=1;labelBackgroundColor=#ffffff;rounded=0;fontFamily=Arial;fontStyle=2" parent="tpW0L4eKJtAbM24Pp-hq-6" edge="1">
          <mxGeometry relative="1" as="geometry">
            <Array as="points" />
            <mxPoint x="350.0000000000001" y="10" as="sourcePoint" />
            <mxPoint x="350.0000000000001" y="65" as="targetPoint" />
          </mxGeometry>
        </mxCell>
        <mxCell id="Izu4CDzaR0ki_h7jihql-131" style="vsdxID=388;edgeStyle=none;startArrow=none;endArrow=none;startSize=5;endSize=5;strokeColor=#000000;spacingTop=-1;spacingBottom=-1;spacingLeft=-1;spacingRight=-1;verticalAlign=middle;html=1;labelBackgroundColor=#ffffff;rounded=0;fontFamily=Arial;fontStyle=2" parent="tpW0L4eKJtAbM24Pp-hq-6" edge="1">
          <mxGeometry relative="1" as="geometry">
            <Array as="points" />
            <mxPoint x="1491.88" y="1016.1999999999998" as="sourcePoint" />
            <mxPoint x="1491.88" y="1078.1999999999998" as="targetPoint" />
          </mxGeometry>
        </mxCell>
        <mxCell id="Izu4CDzaR0ki_h7jihql-132" style="vsdxID=2198;edgeStyle=none;startArrow=none;endArrow=none;startSize=3;endSize=3;strokeWidth=4;strokeColor=#000000;spacingTop=-2;spacingBottom=-2;spacingLeft=-2;spacingRight=-2;verticalAlign=middle;html=1;labelBackgroundColor=#ffffff;rounded=0;fontFamily=Arial;fontStyle=2" parent="tpW0L4eKJtAbM24Pp-hq-6" edge="1">
          <mxGeometry relative="1" as="geometry">
            <Array as="points" />
            <mxPoint x="1651.88" y="1158.1999999999998" as="sourcePoint" />
            <mxPoint x="71.88000000000011" y="1158.1999999999998" as="targetPoint" />
          </mxGeometry>
        </mxCell>
        <mxCell id="Izu4CDzaR0ki_h7jihql-133" style="vsdxID=2197;edgeStyle=none;startArrow=none;endArrow=none;startSize=3;endSize=3;strokeWidth=4;strokeColor=#000000;spacingTop=-2;spacingBottom=-2;spacingLeft=-2;spacingRight=-2;verticalAlign=middle;html=1;labelBackgroundColor=#ffffff;rounded=0;fontFamily=Arial;fontStyle=2" parent="tpW0L4eKJtAbM24Pp-hq-6" edge="1">
          <mxGeometry relative="1" as="geometry">
            <Array as="points" />
            <mxPoint x="71.88000000000011" y="1158.1999999999998" as="sourcePoint" />
            <mxPoint x="71.88000000000011" y="10.199999999999818" as="targetPoint" />
          </mxGeometry>
        </mxCell>
        <mxCell id="Izu4CDzaR0ki_h7jihql-134" style="vsdxID=2196;edgeStyle=none;startArrow=none;endArrow=none;startSize=3;endSize=3;strokeWidth=4;strokeColor=#000000;spacingTop=-2;spacingBottom=-2;spacingLeft=-2;spacingRight=-2;verticalAlign=middle;html=1;labelBackgroundColor=#ffffff;rounded=0;fontFamily=Arial;fontStyle=2" parent="tpW0L4eKJtAbM24Pp-hq-6" edge="1">
          <mxGeometry relative="1" as="geometry">
            <Array as="points" />
            <mxPoint x="1651.88" y="1158.1999999999998" as="sourcePoint" />
            <mxPoint x="1651.88" y="10.199999999999818" as="targetPoint" />
          </mxGeometry>
        </mxCell>
        <mxCell id="Izu4CDzaR0ki_h7jihql-135" style="vsdxID=387;edgeStyle=none;startArrow=none;endArrow=none;startSize=5;endSize=5;strokeColor=#000000;spacingTop=-1;spacingBottom=-1;spacingLeft=-1;spacingRight=-1;verticalAlign=middle;html=1;labelBackgroundColor=#ffffff;rounded=0;fontFamily=Arial;fontStyle=2" parent="tpW0L4eKJtAbM24Pp-hq-6" edge="1">
          <mxGeometry relative="1" as="geometry">
            <Array as="points" />
            <mxPoint x="1471.88" y="1016.1999999999998" as="sourcePoint" />
            <mxPoint x="1471.88" y="1078.1999999999998" as="targetPoint" />
          </mxGeometry>
        </mxCell>
        <mxCell id="Izu4CDzaR0ki_h7jihql-136" style="vsdxID=9;edgeStyle=none;startArrow=none;endArrow=none;startSize=5;endSize=5;strokeWidth=4;strokeColor=#000000;spacingTop=-1;spacingBottom=-1;spacingLeft=-1;spacingRight=-1;verticalAlign=middle;html=1;labelBackgroundColor=#ffffff;rounded=0;fontFamily=Arial;fontStyle=2" parent="tpW0L4eKJtAbM24Pp-hq-6" edge="1">
          <mxGeometry relative="1" as="geometry">
            <mxPoint as="offset" />
            <Array as="points" />
            <mxPoint x="1451.88" y="1078.1999999999998" as="sourcePoint" />
            <mxPoint x="1651.88" y="1078.1999999999998" as="targetPoint" />
          </mxGeometry>
        </mxCell>
        <mxCell id="Izu4CDzaR0ki_h7jihql-137" style="vsdxID=8;edgeStyle=none;startArrow=none;endArrow=none;startSize=5;endSize=5;strokeWidth=4;strokeColor=#000000;spacingTop=-1;spacingBottom=-1;spacingLeft=-1;spacingRight=-1;verticalAlign=middle;html=1;labelBackgroundColor=#ffffff;rounded=0;fontFamily=Arial;fontStyle=2" parent="tpW0L4eKJtAbM24Pp-hq-6" edge="1">
          <mxGeometry relative="1" as="geometry">
            <mxPoint as="offset" />
            <Array as="points" />
            <mxPoint x="1451.88" y="1018.1999999999998" as="sourcePoint" />
            <mxPoint x="1651.88" y="1018.1999999999998" as="targetPoint" />
          </mxGeometry>
        </mxCell>
        <mxCell id="Izu4CDzaR0ki_h7jihql-138" style="vsdxID=7;edgeStyle=none;startArrow=none;endArrow=none;startSize=5;endSize=5;strokeWidth=4;strokeColor=#000000;spacingTop=-1;spacingBottom=-1;spacingLeft=-1;spacingRight=-1;verticalAlign=middle;html=1;labelBackgroundColor=#ffffff;rounded=0;fontFamily=Arial;fontStyle=2" parent="tpW0L4eKJtAbM24Pp-hq-6" edge="1">
          <mxGeometry relative="1" as="geometry">
            <Array as="points" />
            <mxPoint x="1451.88" y="998.1999999999998" as="sourcePoint" />
            <mxPoint x="1451.88" y="1158.1999999999998" as="targetPoint" />
          </mxGeometry>
        </mxCell>
        <mxCell id="Izu4CDzaR0ki_h7jihql-139" style="vsdxID=6;edgeStyle=none;startArrow=none;endArrow=none;startSize=5;endSize=5;strokeWidth=4;strokeColor=#000000;spacingTop=-1;spacingBottom=-1;spacingLeft=-1;spacingRight=-1;verticalAlign=middle;html=1;labelBackgroundColor=#ffffff;rounded=0;fontFamily=Arial;fontStyle=2" parent="tpW0L4eKJtAbM24Pp-hq-6" edge="1">
          <mxGeometry relative="1" as="geometry">
            <Array as="points" />
            <mxPoint x="1651.88" y="1098.1999999999998" as="sourcePoint" />
            <mxPoint x="1171.88" y="1098.1999999999998" as="targetPoint" />
          </mxGeometry>
        </mxCell>
        <mxCell id="Izu4CDzaR0ki_h7jihql-140" style="vsdxID=4;edgeStyle=none;startArrow=none;endArrow=none;startSize=5;endSize=5;strokeWidth=4;strokeColor=#000000;spacingTop=-1;spacingBottom=-1;spacingLeft=-1;spacingRight=-1;verticalAlign=middle;html=1;labelBackgroundColor=#ffffff;rounded=0;fontFamily=Arial;fontStyle=2" parent="tpW0L4eKJtAbM24Pp-hq-6" edge="1">
          <mxGeometry relative="1" as="geometry">
            <Array as="points" />
            <mxPoint x="1171.88" y="938.1999999999998" as="sourcePoint" />
            <mxPoint x="1171.88" y="1158.1999999999998" as="targetPoint" />
          </mxGeometry>
        </mxCell>
        <mxCell id="Izu4CDzaR0ki_h7jihql-141" style="vsdxID=5;edgeStyle=none;startArrow=none;endArrow=none;startSize=5;endSize=5;strokeWidth=4;strokeColor=#000000;spacingTop=-1;spacingBottom=-1;spacingLeft=-1;spacingRight=-1;verticalAlign=middle;html=1;labelBackgroundColor=#ffffff;rounded=0;fontFamily=Arial;fontStyle=2" parent="tpW0L4eKJtAbM24Pp-hq-6" edge="1">
          <mxGeometry relative="1" as="geometry">
            <Array as="points" />
            <mxPoint x="1651.88" y="998.1999999999998" as="sourcePoint" />
            <mxPoint x="1171.88" y="998.1999999999998" as="targetPoint" />
          </mxGeometry>
        </mxCell>
        <mxCell id="Izu4CDzaR0ki_h7jihql-142" value="&lt;font style=&quot;font-size: 8px; direction: ltr; letter-spacing: 0px; line-height: 120%; opacity: 1;&quot;&gt;&lt;span&gt;Изм&lt;br&gt;&lt;/span&gt;&lt;/font&gt;" style="verticalAlign=middle;align=center;vsdxID=29;fillColor=none;gradientColor=none;shape=stencil(nZBLDoAgDERP0z3SIyjew0SURgSD+Lu9kMZoXLhwN9O+tukAlrNpJg1SzDH4QW/URgNYgZTkjA4UkwJUgGXng+6DX1zLfmoymdXo17xh5zmRJ6Q42BWCfc2oJfdAr+Yv+AP9Cb7OJ3H/2JG1HNGz/84klThPVCc=);strokeColor=none;strokeWidth=4;spacingTop=-1;spacingBottom=-1;spacingLeft=-1;spacingRight=-1;labelBackgroundColor=none;rounded=0;html=1;whiteSpace=wrap;fontFamily=Arial;fontStyle=2" parent="tpW0L4eKJtAbM24Pp-hq-6" vertex="1">
          <mxGeometry x="913.88" y="1020.2" width="24" height="16" as="geometry" />
        </mxCell>
        <mxCell id="Izu4CDzaR0ki_h7jihql-143" value="&lt;font style=&quot;font-size: 8px; direction: ltr; letter-spacing: 0px; line-height: 120%; opacity: 1;&quot;&gt;&lt;span&gt;Лист&lt;br&gt;&lt;/span&gt;&lt;/font&gt;" style="verticalAlign=middle;align=center;vsdxID=30;fillColor=none;gradientColor=none;shape=stencil(nZBLDoAgDERP0z3SIyjew0SURgSD+Lu9kMZoXLhwN9O+tukAlrNpJg1SzDH4QW/URgNYgZTkjA4UkwJUgGXng+6DX1zLfmoymdXo17xh5zmRJ6Q42BWCfc2oJfdAr+Yv+AP9Cb7OJ3H/2JG1HNGz/84klThPVCc=);strokeColor=none;strokeWidth=4;spacingTop=-1;spacingBottom=-1;spacingLeft=-1;spacingRight=-1;labelBackgroundColor=none;rounded=0;html=1;whiteSpace=wrap;fontFamily=Arial;fontStyle=2" parent="tpW0L4eKJtAbM24Pp-hq-6" vertex="1">
          <mxGeometry x="941.88" y="1020.2" width="36" height="16" as="geometry" />
        </mxCell>
        <mxCell id="Izu4CDzaR0ki_h7jihql-144" value="&lt;font style=&quot;font-size: 8px; direction: ltr; letter-spacing: 0px; line-height: 120%; opacity: 1;&quot;&gt;&lt;span&gt;№ документа&lt;br&gt;&lt;/span&gt;&lt;/font&gt;" style="verticalAlign=middle;align=center;vsdxID=31;fillColor=none;gradientColor=none;shape=stencil(nZBLDoAgDERP0z3SIyjew0SURgSD+Lu9kMZoXLhwN9O+tukAlrNpJg1SzDH4QW/URgNYgZTkjA4UkwJUgGXng+6DX1zLfmoymdXo17xh5zmRJ6Q42BWCfc2oJfdAr+Yv+AP9Cb7OJ3H/2JG1HNGz/84klThPVCc=);strokeColor=none;strokeWidth=4;spacingTop=-1;spacingBottom=-1;spacingLeft=-1;spacingRight=-1;labelBackgroundColor=none;rounded=0;html=1;whiteSpace=wrap;fontFamily=Arial;fontStyle=2" parent="tpW0L4eKJtAbM24Pp-hq-6" vertex="1">
          <mxGeometry x="981.88" y="1020.2" width="88" height="16" as="geometry" />
        </mxCell>
        <mxCell id="Izu4CDzaR0ki_h7jihql-145" value="&lt;font style=&quot;font-size: 8px; direction: ltr; letter-spacing: 0px; line-height: 120%; opacity: 1;&quot;&gt;&lt;span&gt;Подпись&lt;br&gt;&lt;/span&gt;&lt;/font&gt;" style="verticalAlign=middle;align=center;vsdxID=32;fillColor=none;gradientColor=none;shape=stencil(nZBLDoAgDERP0z3SIyjew0SURgSD+Lu9kMZoXLhwN9O+tukAlrNpJg1SzDH4QW/URgNYgZTkjA4UkwJUgGXng+6DX1zLfmoymdXo17xh5zmRJ6Q42BWCfc2oJfdAr+Yv+AP9Cb7OJ3H/2JG1HNGz/84klThPVCc=);strokeColor=none;strokeWidth=4;spacingTop=-1;spacingBottom=-1;spacingLeft=-1;spacingRight=-1;labelBackgroundColor=none;rounded=0;html=1;whiteSpace=wrap;fontFamily=Arial;fontStyle=2" parent="tpW0L4eKJtAbM24Pp-hq-6" vertex="1">
          <mxGeometry x="1073.88" y="1020.2" width="56" height="16" as="geometry" />
        </mxCell>
        <mxCell id="Izu4CDzaR0ki_h7jihql-146" value="&lt;font style=&quot;font-size: 8px; direction: ltr; letter-spacing: 0px; line-height: 120%; opacity: 1;&quot;&gt;&lt;span&gt;Дата&lt;br&gt;&lt;/span&gt;&lt;/font&gt;" style="verticalAlign=middle;align=center;vsdxID=33;fillColor=none;gradientColor=none;shape=stencil(nZBLDoAgDERP0z3SIyjew0SURgSD+Lu9kMZoXLhwN9O+tukAlrNpJg1SzDH4QW/URgNYgZTkjA4UkwJUgGXng+6DX1zLfmoymdXo17xh5zmRJ6Q42BWCfc2oJfdAr+Yv+AP9Cb7OJ3H/2JG1HNGz/84klThPVCc=);strokeColor=none;strokeWidth=4;spacingTop=-1;spacingBottom=-1;spacingLeft=-1;spacingRight=-1;labelBackgroundColor=none;rounded=0;html=1;whiteSpace=wrap;fontFamily=Arial;fontStyle=2" parent="tpW0L4eKJtAbM24Pp-hq-6" vertex="1">
          <mxGeometry x="1133.88" y="1020.2" width="36" height="16" as="geometry" />
        </mxCell>
        <mxCell id="Izu4CDzaR0ki_h7jihql-147" value="&lt;font style=&quot;font-size: 8px; direction: ltr; letter-spacing: 0px; line-height: 120%; opacity: 1;&quot;&gt;&lt;span&gt;Лит.&lt;br&gt;&lt;/span&gt;&lt;/font&gt;" style="verticalAlign=middle;align=center;vsdxID=34;fillColor=none;gradientColor=none;shape=stencil(nZBLDoAgDERP0z3SIyjew0SURgSD+Lu9kMZoXLhwN9O+tukAlrNpJg1SzDH4QW/URgNYgZTkjA4UkwJUgGXng+6DX1zLfmoymdXo17xh5zmRJ6Q42BWCfc2oJfdAr+Yv+AP9Cb7OJ3H/2JG1HNGz/84klThPVCc=);strokeColor=none;strokeWidth=4;spacingTop=-1;spacingBottom=-1;spacingLeft=-1;spacingRight=-1;labelBackgroundColor=none;rounded=0;html=1;whiteSpace=wrap;fontFamily=Arial;fontStyle=2" parent="tpW0L4eKJtAbM24Pp-hq-6" vertex="1">
          <mxGeometry x="1453.88" y="1000.2" width="56" height="16" as="geometry" />
        </mxCell>
        <mxCell id="Izu4CDzaR0ki_h7jihql-148" value="&lt;font style=&quot;font-size: 8px; direction: ltr; letter-spacing: 0px; line-height: 120%; opacity: 1;&quot;&gt;&lt;span&gt;Масса&lt;br&gt;&lt;/span&gt;&lt;/font&gt;" style="verticalAlign=middle;align=center;vsdxID=35;fillColor=none;gradientColor=none;shape=stencil(nZBLDoAgDERP0z3SIyjew0SURgSD+Lu9kMZoXLhwN9O+tukAlrNpJg1SzDH4QW/URgNYgZTkjA4UkwJUgGXng+6DX1zLfmoymdXo17xh5zmRJ6Q42BWCfc2oJfdAr+Yv+AP9Cb7OJ3H/2JG1HNGz/84klThPVCc=);strokeColor=none;strokeWidth=4;spacingTop=-1;spacingBottom=-1;spacingLeft=-1;spacingRight=-1;labelBackgroundColor=none;rounded=0;html=1;whiteSpace=wrap;fontFamily=Arial;fontStyle=2" parent="tpW0L4eKJtAbM24Pp-hq-6" vertex="1">
          <mxGeometry x="1513.88" y="1000.2" width="66" height="16" as="geometry" />
        </mxCell>
        <mxCell id="Izu4CDzaR0ki_h7jihql-149" value="&lt;font style=&quot;font-size: 8px; direction: ltr; letter-spacing: 0px; line-height: 120%; opacity: 1;&quot;&gt;&lt;span&gt;Масштаб&lt;br&gt;&lt;/span&gt;&lt;/font&gt;" style="verticalAlign=middle;align=center;vsdxID=36;fillColor=none;gradientColor=none;shape=stencil(nZBLDoAgDERP0z3SIyjew0SURgSD+Lu9kMZoXLhwN9O+tukAlrNpJg1SzDH4QW/URgNYgZTkjA4UkwJUgGXng+6DX1zLfmoymdXo17xh5zmRJ6Q42BWCfc2oJfdAr+Yv+AP9Cb7OJ3H/2JG1HNGz/84klThPVCc=);strokeColor=none;strokeWidth=4;spacingTop=-1;spacingBottom=-1;spacingLeft=-1;spacingRight=-1;labelBackgroundColor=none;rounded=0;html=1;whiteSpace=wrap;fontFamily=Arial;fontStyle=2" parent="tpW0L4eKJtAbM24Pp-hq-6" vertex="1">
          <mxGeometry x="1583.88" y="1000.2" width="66" height="16" as="geometry" />
        </mxCell>
        <mxCell id="Izu4CDzaR0ki_h7jihql-150" value="&lt;font style=&quot;font-size: 8px; direction: ltr; letter-spacing: 0px; line-height: 120%; opacity: 1;&quot;&gt;&lt;span&gt;Лист &lt;br&gt;&lt;/span&gt;&lt;/font&gt;" style="verticalAlign=middle;align=center;vsdxID=37;fillColor=none;gradientColor=none;shape=stencil(nZBLDoAgDERP0z3SIyjew0SURgSD+Lu9kMZoXLhwN9O+tukAlrNpJg1SzDH4QW/URgNYgZTkjA4UkwJUgGXng+6DX1zLfmoymdXo17xh5zmRJ6Q42BWCfc2oJfdAr+Yv+AP9Cb7OJ3H/2JG1HNGz/84klThPVCc=);strokeColor=none;strokeWidth=4;spacingTop=-1;spacingBottom=-1;spacingLeft=-1;spacingRight=-1;labelBackgroundColor=none;rounded=0;html=1;whiteSpace=wrap;fontFamily=Arial;fontStyle=2" parent="tpW0L4eKJtAbM24Pp-hq-6" vertex="1">
          <mxGeometry x="1453.88" y="1080.2" width="76" height="16" as="geometry" />
        </mxCell>
        <mxCell id="Izu4CDzaR0ki_h7jihql-151" value="&lt;font style=&quot;font-size: 8px; direction: ltr; letter-spacing: 0px; line-height: 120%; opacity: 1;&quot;&gt;&lt;span&gt;Листов &lt;/span&gt;&lt;/font&gt;&lt;font style=&quot;font-size: 8px; direction: ltr; letter-spacing: 0px; line-height: 120%; opacity: 1;&quot;&gt;&lt;span&gt;1&lt;br&gt;&lt;/span&gt;&lt;/font&gt;" style="verticalAlign=middle;align=center;vsdxID=38;fillColor=none;gradientColor=none;shape=stencil(nZBLDoAgDERP0z3SIyjew0SURgSD+Lu9kMZoXLhwN9O+tukAlrNpJg1SzDH4QW/URgNYgZTkjA4UkwJUgGXng+6DX1zLfmoymdXo17xh5zmRJ6Q42BWCfc2oJfdAr+Yv+AP9Cb7OJ3H/2JG1HNGz/84klThPVCc=);strokeColor=none;strokeWidth=4;spacingTop=-1;spacingBottom=-1;spacingLeft=-1;spacingRight=-1;labelBackgroundColor=none;rounded=0;html=1;whiteSpace=wrap;fontFamily=Arial;fontStyle=2" parent="tpW0L4eKJtAbM24Pp-hq-6" vertex="1">
          <mxGeometry x="1533.88" y="1080.2" width="116" height="16" as="geometry" />
        </mxCell>
        <mxCell id="Izu4CDzaR0ki_h7jihql-152" value="&lt;p style=&quot;margin-left: 0 ; margin-right: 0 ; margin-top: 0px ; margin-bottom: 0px ; text-indent: 0 ; direction: rtl&quot;&gt;&lt;font style=&quot;font-size: 12px; direction: ltr; letter-spacing: 0px; line-height: 120%; opacity: 1;&quot;&gt;&lt;span&gt;.Разраб.&lt;br&gt;&lt;/span&gt;&lt;/font&gt;&lt;/p&gt;" style="verticalAlign=middle;align=right;vsdxID=39;fillColor=none;gradientColor=none;shape=stencil(nZBLDoAgDERP0z3SIyjew0SURgSD+Lu9kMZoXLhwN9O+tukAlrNpJg1SzDH4QW/URgNYgZTkjA4UkwJUgGXng+6DX1zLfmoymdXo17xh5zmRJ6Q42BWCfc2oJfdAr+Yv+AP9Cb7OJ3H/2JG1HNGz/84klThPVCc=);strokeColor=none;strokeWidth=4;spacingTop=-1;spacingBottom=-1;spacingLeft=-1;spacingRight=-1;labelBackgroundColor=none;rounded=0;html=1;whiteSpace=wrap;fontFamily=Arial;fontStyle=2" parent="tpW0L4eKJtAbM24Pp-hq-6" vertex="1">
          <mxGeometry x="891.88" y="1042.2" width="68" height="16" as="geometry" />
        </mxCell>
        <mxCell id="Izu4CDzaR0ki_h7jihql-153" value="&lt;p style=&quot;margin-left: 0 ; margin-right: 0 ; margin-top: 0px ; margin-bottom: 0px ; text-indent: 0 ; direction: rtl&quot;&gt;&lt;font style=&quot;font-size: 12px; direction: ltr; letter-spacing: 0px; line-height: 120%; opacity: 1;&quot;&gt;&lt;span&gt;.Пров&lt;br&gt;&lt;/span&gt;&lt;/font&gt;&lt;/p&gt;" style="verticalAlign=middle;align=right;vsdxID=40;fillColor=none;gradientColor=none;shape=stencil(nZBLDoAgDERP0z3SIyjew0SURgSD+Lu9kMZoXLhwN9O+tukAlrNpJg1SzDH4QW/URgNYgZTkjA4UkwJUgGXng+6DX1zLfmoymdXo17xh5zmRJ6Q42BWCfc2oJfdAr+Yv+AP9Cb7OJ3H/2JG1HNGz/84klThPVCc=);strokeColor=none;strokeWidth=4;spacingTop=-1;spacingBottom=-1;spacingLeft=-1;spacingRight=-1;labelBackgroundColor=none;rounded=0;html=1;whiteSpace=wrap;fontFamily=Arial;fontStyle=2" parent="tpW0L4eKJtAbM24Pp-hq-6" vertex="1">
          <mxGeometry x="883.88" y="1058.2" width="64" height="20" as="geometry" />
        </mxCell>
        <mxCell id="Izu4CDzaR0ki_h7jihql-154" value="&lt;p style=&quot;margin-left: 0 ; margin-right: 0 ; margin-top: 0px ; margin-bottom: 0px ; text-indent: 0 ; direction: rtl&quot;&gt;&lt;font style=&quot;direction: ltr; letter-spacing: 0px; line-height: 120%; opacity: 1;&quot;&gt;&lt;span&gt;&lt;font style=&quot;font-size: 36px&quot;&gt;ГУИР.400201.027 С1&lt;/font&gt;&lt;/span&gt;&lt;span style=&quot;font-size: 28px&quot;&gt;&lt;br&gt;&lt;/span&gt;&lt;/font&gt;&lt;/p&gt;" style="verticalAlign=middle;align=center;vsdxID=222;fillColor=none;gradientColor=none;shape=stencil(nZBLDoAgDERP0z3SIyjew0SURgSD+Lu9kMZoXLhwN9O+tukAlrNpJg1SzDH4QW/URgNYgZTkjA4UkwJUgGXng+6DX1zLfmoymdXo17xh5zmRJ6Q42BWCfc2oJfdAr+Yv+AP9Cb7OJ3H/2JG1HNGz/84klThPVCc=);strokeColor=none;spacingTop=-1;spacingBottom=-1;spacingLeft=-1;spacingRight=-1;labelBackgroundColor=none;rounded=0;html=1;whiteSpace=wrap;fontFamily=Arial;fontStyle=2" parent="tpW0L4eKJtAbM24Pp-hq-6" vertex="1">
          <mxGeometry x="1171.88" y="940" width="480" height="60" as="geometry" />
        </mxCell>
        <mxCell id="Izu4CDzaR0ki_h7jihql-155" value="&lt;font style=&quot;font-size: 20px; direction: ltr; letter-spacing: 0px; line-height: 120%; opacity: 1;&quot;&gt;&lt;span&gt;У&lt;br&gt;&lt;/span&gt;&lt;/font&gt;" style="verticalAlign=middle;align=center;vsdxID=233;fillColor=none;gradientColor=none;shape=stencil(nZBLDoAgDERP0z3SIyjew0SURgSD+Lu9kMZoXLhwN9O+tukAlrNpJg1SzDH4QW/URgNYgZTkjA4UkwJUgGXng+6DX1zLfmoymdXo17xh5zmRJ6Q42BWCfc2oJfdAr+Yv+AP9Cb7OJ3H/2JG1HNGz/84klThPVCc=);strokeColor=none;spacingTop=-1;spacingBottom=-1;spacingLeft=-1;spacingRight=-1;labelBackgroundColor=none;rounded=0;html=1;whiteSpace=wrap;fontFamily=Arial;fontStyle=2" parent="tpW0L4eKJtAbM24Pp-hq-6" vertex="1">
          <mxGeometry x="1409.88" y="1038.2" width="141" height="16" as="geometry" />
        </mxCell>
        <mxCell id="Izu4CDzaR0ki_h7jihql-156" value="&lt;font style=&quot;font-size: 12px; direction: ltr; letter-spacing: 0px; line-height: 120%; opacity: 1;&quot;&gt;&lt;span&gt;Ярмош&lt;br&gt;&lt;/span&gt;&lt;/font&gt;" style="verticalAlign=middle;align=left;vsdxID=236;fillColor=none;gradientColor=none;shape=stencil(nZBLDoAgDERP0z3SIyjew0SURgSD+Lu9kMZoXLhwN9O+tukAlrNpJg1SzDH4QW/URgNYgZTkjA4UkwJUgGXng+6DX1zLfmoymdXo17xh5zmRJ6Q42BWCfc2oJfdAr+Yv+AP9Cb7OJ3H/2JG1HNGz/84klThPVCc=);strokeColor=none;spacingTop=-1;spacingBottom=-1;spacingLeft=-1;spacingRight=-1;labelBackgroundColor=none;rounded=0;html=1;whiteSpace=wrap;fontFamily=Arial;fontStyle=2" parent="tpW0L4eKJtAbM24Pp-hq-6" vertex="1">
          <mxGeometry x="981.88" y="1041.2" width="90" height="16" as="geometry" />
        </mxCell>
        <mxCell id="Izu4CDzaR0ki_h7jihql-157" value="Глецевич" style="verticalAlign=middle;align=left;vsdxID=237;fillColor=none;gradientColor=none;shape=stencil(nZBLDoAgDERP0z3SIyjew0SURgSD+Lu9kMZoXLhwN9O+tukAlrNpJg1SzDH4QW/URgNYgZTkjA4UkwJUgGXng+6DX1zLfmoymdXo17xh5zmRJ6Q42BWCfc2oJfdAr+Yv+AP9Cb7OJ3H/2JG1HNGz/84klThPVCc=);strokeColor=none;spacingTop=-1;spacingBottom=-1;spacingLeft=-1;spacingRight=-1;labelBackgroundColor=none;rounded=0;html=1;whiteSpace=wrap;fontFamily=Arial;fontStyle=2" parent="tpW0L4eKJtAbM24Pp-hq-6" vertex="1">
          <mxGeometry x="981.88" y="1060.2" width="90" height="16" as="geometry" />
        </mxCell>
        <mxCell id="Izu4CDzaR0ki_h7jihql-158" value="&lt;font style=&quot;font-size: 22px; direction: ltr; letter-spacing: 0px; line-height: 120%; opacity: 1;&quot;&gt;&lt;span&gt;ЭВМ, гр.050501&lt;/span&gt;&lt;/font&gt;&lt;font style=&quot;font-size: 22px; direction: ltr; letter-spacing: 0px; line-height: 120%; opacity: 1;&quot;&gt;&lt;span&gt;&lt;br&gt;&lt;/span&gt;&lt;/font&gt;" style="verticalAlign=middle;align=center;vsdxID=262;fillColor=none;gradientColor=none;shape=stencil(nZBLDoAgDERP0z3SIyjew0SURgSD+Lu9kMZoXLhwN9O+tukAlrNpJg1SzDH4QW/URgNYgZTkjA4UkwJUgGXng+6DX1zLfmoymdXo17xh5zmRJ6Q42BWCfc2oJfdAr+Yv+AP9Cb7OJ3H/2JG1HNGz/84klThPVCc=);strokeColor=none;spacingTop=-1;spacingBottom=-1;spacingLeft=-1;spacingRight=-1;labelBackgroundColor=none;rounded=0;html=1;whiteSpace=wrap;fontFamily=Arial;fontStyle=2" parent="tpW0L4eKJtAbM24Pp-hq-6" vertex="1">
          <mxGeometry x="1451.88" y="1100" width="194" height="60" as="geometry" />
        </mxCell>
        <mxCell id="Izu4CDzaR0ki_h7jihql-159" value="&lt;p style=&quot;margin: 0px; text-indent: 0px; direction: rtl;&quot;&gt;&lt;font style=&quot;direction: ltr; letter-spacing: 0px; line-height: 120%; opacity: 1;&quot;&gt;&lt;font style=&quot;font-size: 28px;&quot;&gt;ГУИР.400201.027 С1&lt;/font&gt;&lt;span style=&quot;font-size: 30px;&quot;&gt;&lt;br style=&quot;font-size: 30px&quot;&gt;&lt;/span&gt;&lt;/font&gt;&lt;/p&gt;" style="verticalAlign=middle;align=center;vsdxID=275;rotation=180;fillColor=none;gradientColor=none;shape=stencil(nZBLDoAgDERP0z3SIyjew0SURgSD+Lu9kMZoXLhwN9O+tukAlrNpJg1SzDH4QW/URgNYgZTkjA4UkwJUgGXng+6DX1zLfmoymdXo17xh5zmRJ6Q42BWCfc2oJfdAr+Yv+AP9Cb7OJ3H/2JG1HNGz/84klThPVCc=);strokeColor=none;spacingTop=-1;spacingBottom=-1;spacingLeft=-1;spacingRight=-1;labelBackgroundColor=none;rounded=0;html=1;whiteSpace=wrap;fontSize=30;fontFamily=Arial;fontStyle=2" parent="tpW0L4eKJtAbM24Pp-hq-6" vertex="1">
          <mxGeometry x="71.88" y="10" width="275.59" height="55.117999999999995" as="geometry" />
        </mxCell>
        <mxCell id="Izu4CDzaR0ki_h7jihql-160" value="&lt;p style=&quot;font-style: normal; margin: 0cm;&quot; class=&quot;MsoNormal&quot;&gt;&lt;i style=&quot;&quot;&gt;&lt;font style=&quot;font-size: 18px;&quot;&gt;Локальная компьютерная сеть. Схема СКС функциональная&lt;/font&gt;&lt;/i&gt;&lt;/p&gt;" style="verticalAlign=middle;align=center;vsdxID=565;fillColor=none;gradientColor=none;shape=stencil(nZBLDoAgDERP0z3SIyjew0SURgSD+Lu9kMZoXLhwN9O+tukAlrNpJg1SzDH4QW/URgNYgZTkjA4UkwJUgGXng+6DX1zLfmoymdXo17xh5zmRJ6Q42BWCfc2oJfdAr+Yv+AP9Cb7OJ3H/2JG1HNGz/84klThPVCc=);strokeColor=none;spacingTop=-1;spacingBottom=-1;spacingLeft=-1;spacingRight=-1;labelBackgroundColor=none;rounded=0;html=1;whiteSpace=wrap;fontFamily=Arial;fontStyle=2" parent="tpW0L4eKJtAbM24Pp-hq-6" vertex="1">
          <mxGeometry x="1175" y="1000.2" width="271.88" height="100" as="geometry" />
        </mxCell>
        <mxCell id="Izu4CDzaR0ki_h7jihql-162" style="vsdxID=272;edgeStyle=none;startArrow=none;endArrow=none;startSize=5;endSize=5;strokeWidth=4;strokeColor=#000000;spacingTop=-1;spacingBottom=-1;spacingLeft=-1;spacingRight=-1;verticalAlign=middle;html=1;labelBackgroundColor=#ffffff;rounded=0;fontFamily=Arial;fontStyle=2" parent="tpW0L4eKJtAbM24Pp-hq-6" edge="1">
          <mxGeometry relative="1" as="geometry">
            <Array as="points">
              <mxPoint x="350" y="63" />
            </Array>
            <mxPoint x="70" y="63" as="sourcePoint" />
            <mxPoint x="350" y="63" as="targetPoint" />
          </mxGeometry>
        </mxCell>
        <mxCell id="Izu4CDzaR0ki_h7jihql-163" style="vsdxID=2;edgeStyle=none;startArrow=none;endArrow=none;startSize=5;endSize=5;strokeWidth=4;strokeColor=#000000;spacingTop=-1;spacingBottom=-1;spacingLeft=-1;spacingRight=-1;verticalAlign=middle;html=1;labelBackgroundColor=#ffffff;rounded=0;fontFamily=Arial;fontStyle=2" parent="tpW0L4eKJtAbM24Pp-hq-6" edge="1">
          <mxGeometry relative="1" as="geometry">
            <Array as="points" />
            <mxPoint x="1651.88" y="10.199999999999818" as="sourcePoint" />
            <mxPoint x="71.88000000000011" y="10.199999999999818" as="targetPoint" />
          </mxGeometry>
        </mxCell>
        <mxCell id="tpW0L4eKJtAbM24Pp-hq-5" value="Надписи" parent="0" />
        <mxCell id="tpW0L4eKJtAbM24Pp-hq-7" value="Связи" parent="0" />
        <mxCell id="tpW0L4eKJtAbM24Pp-hq-3" value="Сущности" parent="0" />
      </root>
    </mxGraphModel>
  </diagram>
</mxfile>
